<svg width="33" height="30" viewBox="0 0 33 30" fill="none" xmlns="http://www.w3.org/2000/svg">
<path d="M17.7996 6.5238C17.3059 5.9231 17.4867 5.23858 17.3337 4.62391C17.2781 4.4004 16.9722 4.24673 16.7844 4.05115C16.6592 3.91146 16.5202 3.77176 16.4367 3.60412C16.3394 3.4295 16.2977 3.21995 16.2212 3.03136C16.0752 2.68212 15.9013 2.34685 15.7831 1.9976C15.6788 1.69027 16.0821 1.18736 16.4089 1.1245C16.541 1.09656 16.694 0.998768 16.7635 0.88701C17.1529 0.293296 17.6606 -0.139766 18.4463 0.0418409C18.7453 0.11169 19.0652 0.132644 19.3711 0.132644C19.7118 0.132644 19.837 0.265357 19.7675 0.58666C20.136 0.705403 20.4976 0.810176 20.6506 1.2153C20.6645 1.24324 20.6853 1.28515 20.7131 1.29213C21.3459 1.41786 21.2207 2.03951 21.4502 2.43067C21.5754 2.63323 21.4015 2.8288 21.1999 2.93358C21.0469 3.01041 20.887 3.07327 20.7062 3.15011C20.7618 3.34568 20.8035 3.51332 20.8592 3.68794C20.9496 3.97432 20.7201 4.28165 20.289 4.42135C20.0178 4.51216 19.7396 4.57502 19.3642 4.67281C19.3642 5.19667 19.3642 5.73451 19.3642 6.27234C19.3642 6.4749 19.4615 6.54475 19.6632 6.57269C21.04 6.72636 22.3194 7.24324 23.6336 7.64836C24.7462 7.99062 25.7197 8.57036 26.6167 9.27584C27.1243 9.67397 27.5762 10.142 28.0491 10.582C28.4246 10.9312 28.814 11.2665 29.1755 11.6227C29.3146 11.7624 29.3841 11.972 29.5093 12.1257C30.2533 13.0197 30.6497 14.1024 31.1782 15.1152C31.8596 16.4214 32.1377 17.8533 32.6453 19.2153C32.7357 19.4598 32.7775 19.7392 32.7566 19.9976C32.7427 20.1513 32.5828 20.3888 32.4506 20.4167C32.2281 20.4726 31.95 20.4446 31.7344 20.3538C31.4702 20.2491 31.3659 19.9278 31.0113 19.837C30.7888 19.7811 30.601 19.3759 30.4898 19.0966C30.01 17.8323 29.6136 16.5331 29.0851 15.2898C28.5845 14.0954 27.9865 12.9359 27.0061 12.0349C26.4081 11.4831 25.8518 10.8754 25.2121 10.3794C24.767 10.0372 24.2316 9.79272 23.7101 9.57618C23.0426 9.30377 22.3611 9.05232 21.6588 8.87071C20.9913 8.69609 20.3029 8.53544 19.6214 8.51448C18.5297 8.48654 17.438 8.54242 16.3463 8.64021C15.1782 8.74498 14.0795 9.13614 12.9948 9.56221C11.2355 10.2607 9.67794 11.2875 8.322 12.5936C7.68923 13.2083 7.20944 13.9767 6.66707 14.6751C6.43065 14.9825 6.18033 15.2898 5.97172 15.6181C5.62405 16.1629 5.28332 16.7077 4.97737 17.2735C4.59493 17.979 4.23335 18.6914 3.88567 19.4179C3.72574 19.7461 3.55886 20.1024 3.53104 20.4586C3.51714 20.6751 3.70488 21.0174 3.89262 21.1222C4.33069 21.3666 4.81744 21.5203 5.30418 21.667C6.25681 21.9464 7.20944 22.2048 8.17598 22.4493C8.69749 22.582 9.23291 22.6449 9.75442 22.7636C10.4776 22.9312 11.1938 23.1198 11.91 23.3084C12.1812 23.3783 12.4454 23.4411 12.7097 23.518C13.9335 23.8672 15.199 23.9301 16.4645 23.9999C16.84 24.0209 17.2155 23.951 17.598 23.9371C19.1695 23.8952 20.734 23.8672 22.3055 23.8323C23.1955 23.8113 24.0856 23.8113 24.9617 23.7275C25.6571 23.6577 26.3385 23.4621 27.0339 23.3294C27.5762 23.2246 28.1256 23.0849 28.6749 23.029C28.8626 23.0081 29.1199 23.1687 29.2659 23.3224C29.5649 23.6577 29.8361 24.0349 29.7805 24.5378C29.7457 24.8661 29.5928 24.9708 29.2729 25.0197C28.4315 25.1385 27.6041 25.3061 26.7627 25.4318C25.8379 25.5715 24.92 25.7182 23.9882 25.7881C22.9939 25.8649 21.9856 25.8649 20.9843 25.8928C20.3029 25.9138 19.6214 25.9417 18.94 25.9278C17.8344 25.8998 16.7288 25.8509 15.6232 25.7881C15.0043 25.7531 14.3855 25.7182 13.7805 25.6065C12.9183 25.4388 12.063 25.1943 11.2077 24.9918C10.7974 24.894 10.3802 24.8102 9.97694 24.7054C8.98259 24.447 7.99519 24.1815 7.00779 23.9091C6.43065 23.7485 5.84656 23.6018 5.28332 23.4062C4.54625 23.1548 3.82309 22.8754 3.09993 22.582C2.83569 22.4772 2.58537 22.3166 2.3559 22.142C2.24465 22.0581 2.19597 21.9045 2.12644 21.7718C1.67446 20.9406 1.68837 20.0744 1.98737 19.2153C2.31418 18.2793 2.67576 17.3643 3.23204 16.5261C3.8509 15.5971 4.3446 14.5843 4.91479 13.6204C5.08863 13.3271 5.33895 13.0756 5.53365 12.7962C5.77007 12.4679 6.02735 12.1466 6.19423 11.7904C6.36807 11.4202 6.66012 11.1757 6.93826 10.9173C7.36937 10.5191 7.82135 10.142 8.28724 9.78573C9.14947 9.12217 10.1021 8.60529 11.1034 8.17921C11.6527 7.94172 12.1603 7.60645 12.7236 7.41786C13.5788 7.13148 14.4202 6.78922 15.345 6.74033C16.0334 6.7054 16.7149 6.58666 17.3963 6.50983C17.5006 6.51681 17.591 6.5238 17.7996 6.5238Z" fill="#274D44"/>
<path d="M22.8408 30C22.2428 29.9511 21.3945 29.8673 20.5392 29.8184C20.0594 29.7904 19.5726 29.8254 19.0859 29.8044C18.6409 29.7835 18.1959 29.7415 17.7508 29.6996C16.7634 29.6088 15.776 29.532 14.7886 29.4202C14.3088 29.3644 13.836 29.2386 13.3562 29.1618C12.9946 29.1059 12.6122 29.1059 12.2576 29.0151C11.1102 28.7218 9.97682 28.3655 8.82949 28.0931C7.98116 27.8906 7.09807 27.7998 6.24974 27.5972C5.61002 27.4435 4.96335 27.241 4.3723 26.9476C3.59351 26.5564 2.84948 26.0885 2.13327 25.5995C1.75778 25.3411 1.41706 25.0058 1.15283 24.6356C0.999853 24.4191 0.958132 24.0559 1.01376 23.7904C1.04853 23.6228 1.35448 23.4342 1.55613 23.4133C1.81341 23.3853 2.16804 23.4272 2.33492 23.5949C3.42662 24.6496 4.75474 25.2363 6.18021 25.5995C7.36926 25.9069 8.59307 26.0815 9.78907 26.3399C10.2689 26.4447 10.7556 26.5774 11.2076 26.766C11.8821 27.0454 12.5844 26.9965 13.2797 27.0594C13.7248 27.1013 14.1698 27.1502 14.6148 27.1851C15.1919 27.241 15.776 27.2829 16.3532 27.3457C16.68 27.3807 16.9999 27.4645 17.3267 27.5064C17.8065 27.5692 18.2862 27.6321 18.773 27.6531C19.4614 27.688 20.1498 27.702 20.8451 27.702C21.464 27.702 22.0898 27.7089 22.7017 27.6601C23.4944 27.5972 24.2871 27.4715 25.0798 27.3737C25.942 27.2689 26.8112 27.1921 27.6804 27.0733C27.9516 27.0384 28.2089 26.9197 28.4731 26.8428C28.9529 26.7031 29.4397 26.5704 29.9195 26.4237C30.4757 26.2561 31.032 26.0675 31.5952 25.9278C32.082 25.8021 32.527 26.1094 32.7634 26.7101C32.8677 26.9755 32.9581 27.2549 32.9859 27.5343C33.0207 27.9115 32.833 28.0582 32.4783 28.142C31.6926 28.3236 30.9138 28.5471 30.1281 28.7427C29.2241 28.9662 28.3271 29.2107 27.4162 29.3993C26.8182 29.525 26.2063 29.553 25.6013 29.6368C24.7739 29.7346 23.9394 29.8533 22.8408 30Z" fill="#274D44"/>
</svg>
