<svg width="38" height="34" viewBox="0 0 38 34" fill="none" xmlns="http://www.w3.org/2000/svg">
<path d="M18.5714 4.62801L18.5715 4.62791C18.5537 4.60807 18.5346 4.58726 18.5146 4.56551C18.3943 4.43447 18.2426 4.26934 18.1453 4.0771C18.0797 3.95874 18.0353 3.834 17.9988 3.72357C17.989 3.69396 17.9799 3.66573 17.9711 3.63858C17.9448 3.55705 17.9216 3.48513 17.8927 3.41404C17.8406 3.29009 17.7817 3.16044 17.7213 3.02753C17.6052 2.77179 17.4835 2.50397 17.3943 2.24146C17.3942 2.2414 17.3942 2.24134 17.3942 2.24127L17.6309 2.1608C17.5135 1.8166 17.9673 1.25336 18.3349 1.18296L18.5714 4.62801ZM18.5714 4.62801L18.5774 4.6342M18.5714 4.62801L18.5774 4.6342M18.5774 4.6342C18.6599 4.71977 18.7707 4.80799 18.8619 4.88061C18.8992 4.91028 18.9332 4.93735 18.9607 4.96057C19.0804 5.06178 19.1227 5.12239 19.1328 5.16276C19.1707 5.31419 19.189 5.4745 19.2025 5.64961C19.2066 5.70294 19.2103 5.75913 19.2142 5.81696C19.2224 5.94106 19.2311 6.07265 19.2452 6.19941C19.2726 6.44667 19.3225 6.70619 19.4397 6.96336M18.5774 4.6342L19.4397 6.96336M19.4397 6.96336L19.4179 6.96581C19.1534 6.9955 18.8943 7.02986 18.638 7.06386C18.1307 7.13114 17.6339 7.19704 17.1254 7.22272L17.1249 7.22274C16.2111 7.27084 15.3638 7.56316 14.5565 7.84168C14.4063 7.89349 14.2574 7.94483 14.1098 7.99403C13.7738 8.10606 13.4583 8.26027 13.1576 8.41457C13.0986 8.44481 13.0404 8.47495 12.9828 8.50483C12.7415 8.62978 12.509 8.7502 12.2681 8.85394C11.1278 9.33702 10.0368 9.92558 9.0463 10.6844C8.51665 11.0876 8.00229 11.5149 7.51123 11.9663L7.51067 11.9668C7.47938 11.9958 7.44726 12.0251 7.41457 12.0549C7.1355 12.3097 6.81519 12.602 6.6173 13.0215L6.6172 13.0218C6.47527 13.3233 6.27211 13.5989 6.05233 13.897C6.00149 13.966 5.94976 14.0362 5.89769 14.1081L5.89767 14.1081L5.89544 14.1113C5.81041 14.2328 5.71581 14.3486 5.61423 14.473C5.59287 14.4992 5.57119 14.5257 5.54923 14.5528C5.42629 14.7043 5.29698 14.8688 5.18921 15.0499L5.18911 15.05C4.93895 15.471 4.70661 15.891 4.47655 16.3068C4.10179 16.9841 3.73307 17.6505 3.30317 18.2929L3.30293 18.2933C2.65902 19.2592 2.24395 20.3084 1.87477 21.361L1.87469 21.3612C1.52089 22.3732 1.4979 23.4187 2.04674 24.4248C2.06283 24.4555 2.0782 24.4883 2.09649 24.5272L2.0966 24.5274C2.11433 24.5651 2.13501 24.6092 2.15802 24.6523C2.20311 24.7368 2.2687 24.8411 2.37432 24.9207C2.64164 25.1232 2.94335 25.3175 3.26959 25.4464C3.2699 25.4465 3.27021 25.4467 3.27052 25.4468L3.36231 25.2142M19.4397 6.96336L7.25887 26.8233C7.40426 26.8627 7.54881 26.9018 7.6919 26.9415L7.69245 26.9416C8.80432 27.247 9.91635 27.5446 11.0363 27.8344L11.0364 27.8344C11.3146 27.9063 11.6055 27.9711 11.892 28.0349C12.0732 28.0753 12.2526 28.1152 12.4258 28.1563L12.4262 28.1564C12.7524 28.2333 13.083 28.3168 13.4162 28.401C14.0492 28.561 14.6915 28.7233 15.3304 28.8469L15.3327 28.8473C16.0288 28.9754 16.7381 29.0152 17.4292 29.054L17.4368 29.0545M3.36231 25.2142C4.17587 25.5428 4.98943 25.8557 5.81863 26.1373M3.36231 25.2142C3.06505 25.0969 2.78343 24.917 2.52528 24.7214L3.36231 25.2142ZM5.81863 26.1373L5.73696 26.3736C5.73717 26.3737 5.73738 26.3738 5.7376 26.3738C5.73781 26.3739 5.73802 26.374 5.73824 26.374L5.81863 26.1373ZM5.81863 26.1373C6.30956 26.307 6.81457 26.4439 7.31912 26.5806C7.46579 26.6203 7.61242 26.66 7.75866 26.7006C8.86948 27.0056 9.9803 27.3029 11.0989 27.5923C11.3747 27.6637 11.6563 27.7263 11.9384 27.7891C12.1204 27.8296 12.3026 27.8701 12.4836 27.9131C12.8182 27.992 13.1528 28.0765 13.4877 28.1612C14.1159 28.32 14.7453 28.479 15.378 28.6015C16.0585 28.7266 16.7547 28.7658 17.451 28.8049M17.451 28.8049L17.4368 29.0545M17.451 28.8049L17.4369 29.0545L17.4368 29.0545M17.451 28.8049C18.6948 28.8753 19.9386 28.93 21.1824 28.9613C21.8395 28.9747 22.4966 28.9537 23.1537 28.9326C23.2632 28.9291 23.3727 28.9256 23.4823 28.9222M17.4368 29.0545L24.3844 29.1517C25.214 29.1348 26.0528 29.1178 26.8803 29.0542M23.4823 28.9222L23.4892 29.1721C23.4894 29.1721 23.4897 29.1721 23.4899 29.1721L23.4823 28.9222ZM23.4823 28.9222C23.783 28.9139 24.0842 28.9077 24.3856 28.9016C25.2132 28.8848 26.0416 28.8679 26.8617 28.8049M26.8617 28.8049L26.8803 29.0542M26.8617 28.8049L26.8808 29.0541C26.8806 29.0541 26.8805 29.0542 26.8803 29.0542M26.8617 28.8049C27.813 28.7339 28.7515 28.592 29.6946 28.4494C29.7906 28.4349 29.8867 28.4204 29.9829 28.4059M26.8803 29.0542L31.3341 28.4364C31.3686 28.4305 31.4031 28.4245 31.4375 28.4185C31.907 28.3374 32.3728 28.2578 32.8417 28.192L32.8445 28.1915C33.0367 28.1623 33.2297 28.1105 33.3783 27.9791C33.5352 27.8403 33.6033 27.6495 33.6265 27.4313M29.9829 28.4059L30.0197 28.6532C30.0198 28.6532 30.02 28.6531 30.0201 28.6531L29.9829 28.4059ZM29.9829 28.4059C30.4216 28.3406 30.857 28.2653 31.2921 28.19C31.7957 28.1028 32.2991 28.0157 32.8069 27.9444C33.1667 27.8896 33.3388 27.7723 33.378 27.4046M33.378 27.4046L33.6264 27.4322C33.6265 27.4319 33.6265 27.4316 33.6265 27.4313M33.378 27.4046C33.4405 26.8414 33.1355 26.4189 32.7991 26.0435L33.6265 27.4313M33.378 27.4046L33.6266 27.431C33.6265 27.4311 33.6265 27.4312 33.6265 27.4313M7.37535 16.359L7.57317 16.5118C7.5731 16.5119 7.57303 16.512 7.57295 16.5121C7.51966 16.5811 7.46643 16.6492 7.41356 16.7169C7.1967 16.9944 6.98607 17.264 6.80381 17.5495L6.80355 17.5499C6.41277 18.1596 6.03368 18.7632 5.69412 19.3883L5.69399 19.3886C5.26591 20.1747 4.86104 20.9688 4.47159 21.7789L4.47083 21.7805C4.28809 22.1539 4.12419 22.5103 4.09672 22.8536C4.09373 22.9081 4.11905 23.0145 4.18482 23.1344C4.25111 23.2553 4.32818 23.3345 4.37551 23.3608C4.84137 23.6196 5.36407 23.7851 5.91298 23.9497C6.98117 24.2616 8.04959 24.5502 9.13391 24.8232L9.13426 24.8233C9.41795 24.8951 9.70725 24.9486 10.0045 25.0014C10.0361 25.007 10.0679 25.0126 10.0997 25.0182C10.3644 25.065 10.6357 25.113 10.9039 25.1738L10.9048 25.174C11.7219 25.3626 12.5306 25.5746 13.3351 25.7855L13.3357 25.7856C13.4162 25.8063 13.4972 25.8266 13.5784 25.847C13.7989 25.9024 14.0214 25.9583 14.2421 26.0222C15.559 26.3962 16.9235 26.471 18.3219 26.5477L18.4112 26.5526L18.4114 26.5526C18.6039 26.5633 18.8004 26.5511 19.0103 26.5327C19.0568 26.5286 19.1044 26.5242 19.1527 26.5197C19.3172 26.5044 19.4907 26.4883 19.6635 26.482L19.666 26.4819C20.8494 26.4505 22.0299 26.4261 23.2108 26.4017C23.7946 26.3896 24.3786 26.3775 24.963 26.3646L14.5853 10.8655M7.37535 16.359C7.55831 16.1244 7.73495 15.8828 7.91179 15.6409C8.3247 15.0761 8.73874 14.5098 9.23715 14.0278M7.37535 16.359C7.32392 16.4255 7.27191 16.4921 7.21977 16.5588C7.00223 16.8371 6.78239 17.1185 6.59308 17.415M7.37535 16.359L6.59308 17.415M9.23715 14.0278L9.41018 14.2082C9.41032 14.2081 9.41046 14.208 9.4106 14.2079C9.41071 14.2077 9.41082 14.2076 9.41094 14.2075L9.23715 14.0278ZM9.23715 14.0278C10.7626 12.565 12.5149 11.415 14.494 10.6328M14.494 10.6328L14.585 10.8656C14.5851 10.8656 14.5852 10.8655 14.5853 10.8655M14.494 10.6328C15.7143 10.1556 16.9503 9.71751 18.2645 9.60017M14.494 10.6328L14.5859 10.8653C14.5857 10.8653 14.5855 10.8654 14.5853 10.8655M14.5853 10.8655L18.2645 9.60017M34.7626 22.1399L34.7019 22.3825C34.5799 22.3519 34.4818 22.2794 34.4073 22.2059C34.3314 22.131 34.2658 22.041 34.21 21.9512C34.0984 21.7718 34.0078 21.5638 33.9437 21.4036L33.9422 21.3998L33.9423 21.3998C33.7283 20.8385 33.5319 20.28 33.3368 19.7252C33.031 18.8555 32.7283 17.9946 32.3658 17.1455L32.3653 17.1444C31.8058 15.8157 31.15 14.5582 30.088 13.5864L30.0876 13.5861C29.8518 13.3696 29.6274 13.1512 29.4059 12.9358C28.9747 12.5164 28.555 12.1082 28.0862 11.7463C27.6138 11.3847 27.0384 11.1213 26.4539 10.8797C25.7078 10.5766 24.9531 10.2998 24.1787 10.1004L24.1781 10.1003C23.4284 9.90502 22.6779 9.73188 21.942 9.70927L26.5488 10.6484C27.1355 10.8909 27.7378 11.1647 28.2385 11.548C28.7182 11.9183 29.1563 12.3442 29.5944 12.7701C29.8134 12.983 30.0325 13.196 30.2567 13.402C31.3597 14.4111 32.0325 15.7097 32.5957 17.0474C32.9603 17.9012 33.2689 18.7787 33.5777 19.6562C33.7724 20.2096 33.9671 20.7631 34.1759 21.3107C34.301 21.6236 34.5122 22.0774 34.7626 22.1399ZM34.7626 22.1399C34.9866 22.197 35.1218 22.3355 35.25 22.4668C35.35 22.5693 35.4458 22.6674 35.5761 22.7188M34.7626 22.1399L34.7008 22.3822C34.8317 22.4156 34.9207 22.4894 35.03 22.5995C35.0418 22.6114 35.0543 22.6244 35.0676 22.6381C35.1632 22.7371 35.2986 22.8772 35.4817 22.9503M35.5761 22.7188L35.4794 22.9494C35.4802 22.9497 35.4809 22.95 35.4817 22.9503M35.5761 22.7188C35.8186 22.8205 36.1315 22.8518 36.3819 22.7892L35.5761 22.7188ZM35.4817 22.9503C35.7676 23.0696 36.1328 23.1081 36.4388 23.0327M35.4817 22.9503L36.4388 23.0327M6.59308 17.415C6.20194 18.0252 5.81863 18.6354 5.47443 19.269L6.59308 17.415ZM36.4388 23.0327C36.5293 23.0123 36.6036 22.9633 36.6572 22.9181C36.7146 22.8698 36.7653 22.8116 36.8074 22.7524C36.8872 22.6405 36.9617 22.4888 36.9751 22.3425L36.9753 22.3401C37.0018 22.0121 36.9489 21.6626 36.8353 21.3567L36.835 21.3561C36.631 20.8111 36.4614 20.2593 36.2893 19.6993C36.223 19.4837 36.1564 19.2669 36.0873 19.0488C35.8406 18.2706 35.5655 17.4871 35.1717 16.7358L34.9503 16.8518L35.1717 16.7357C35.0254 16.4565 34.8878 16.1717 34.7493 15.8829C34.7358 15.8548 34.7224 15.8267 34.7089 15.7986C34.5841 15.5382 34.4579 15.2747 34.3253 15.0144C34.0315 14.4376 33.7011 13.8657 33.2656 13.3445C33.2178 13.2858 33.1787 13.2168 33.1267 13.1251C33.1208 13.1146 33.1146 13.1038 33.1083 13.0926C33.052 12.9937 32.9789 12.8685 32.8742 12.7637L32.8724 12.762C32.6112 12.5057 32.3324 12.2548 32.0579 12.0075C31.9026 11.8678 31.7487 11.7292 31.6 11.5915C31.457 11.459 31.3134 11.3219 31.1682 11.1832C30.7867 10.8191 30.3942 10.4443 29.9727 10.1152L36.4388 23.0327ZM18.2645 9.60017C19.4927 9.49065 20.7208 9.42807 21.949 9.45936L18.2645 9.60017ZM18.4235 0.876288C18.3744 0.908563 18.3237 0.929559 18.2851 0.937974L29.9725 10.115C28.9468 9.31197 27.8247 8.64503 26.536 8.25035C26.1955 8.14584 25.8533 8.03319 25.5086 7.91971C24.3852 7.54991 23.235 7.17127 22.0271 7.03657C21.982 7.03022 21.9523 7.02279 21.9328 7.01575C21.9243 7.01266 21.9189 7.01006 21.9158 7.00834C21.9135 7.00094 21.9096 6.9829 21.9096 6.94828V6.94475V6.94122V6.93769V6.93416V6.93063V6.9271V6.92357V6.92004V6.91651V6.91299V6.90946V6.90593V6.9024V6.89887V6.89534V6.89181V6.88828V6.88475V6.88122V6.87769V6.87416V6.87063V6.86711V6.86358V6.86005V6.85652V6.85299V6.84946V6.84593V6.8424V6.83887V6.83534V6.83181V6.82829V6.82476V6.82123V6.8177V6.81417V6.81064V6.80711V6.80358V6.80005V6.79653V6.793V6.78947V6.78594V6.78241V6.77888V6.77535V6.77183V6.7683V6.76477V6.76124V6.75771V6.75418V6.75065V6.74713V6.7436V6.74007V6.73654V6.73301V6.72949V6.72596V6.72243V6.7189V6.71537V6.71185V6.70832V6.70479V6.70126V6.69774V6.69421V6.69068V6.68715V6.68363V6.6801V6.67657V6.67304V6.66952V6.66599V6.66246V6.65894V6.65541V6.65188V6.64835V6.64483V6.6413V6.63777V6.63425V6.63072V6.62719V6.62367V6.62014V6.61661V6.61309V6.60956V6.60604V6.60251V6.59898V6.59546V6.59193V6.58841V6.58488V6.58136V6.57783V6.5743V6.57078V6.56725V6.56373V6.5602V6.55668V6.55315V6.54963V6.5461V6.54258V6.53905V6.53553V6.532V6.52848V6.52496V6.52143V6.51791V6.51438V6.51086V6.50734V6.50381V6.50029V6.49676V6.49324V6.48972V6.48619V6.48267V6.47915V6.47562V6.4721V6.46858V6.46505V6.46153V6.45801V6.45449V6.45096V6.44744V6.44392V6.4404V6.43688V6.43335V6.42983V6.42631V6.42279V6.41927V6.41575V6.41222V6.4087V6.40518V6.40166V6.39814V6.39462V6.3911V6.38758V6.38406V6.38054V6.37702V6.3735V6.36998V6.36646V6.36294V6.35942V6.3559V6.35238V6.34886V6.34534V6.34182V6.3383V6.33478V6.33126V6.32774V6.32423V6.32071V6.31719V6.31367V6.31015V6.30664V6.30312V6.2996V6.29608V6.29257V6.28905V6.28553V6.28201V6.2785V6.27498V6.27146V6.26795V6.26443V6.26092V6.2574V6.25388V6.25037V6.24685V6.24334V6.23982V6.23631V6.23279V6.22928V6.22576V6.22225V6.21873V6.21522V6.2117V6.20819V6.20468V6.20116V6.19765V6.19414V6.19062V6.18711V6.1836V6.18008V6.17657V6.17306V6.16955V6.16603V6.16252V6.15901V6.1555V6.15199V6.14847V6.14496V6.14145V6.13794V6.13443V6.13092V6.12741V6.1239V6.12039V6.11688V6.11337V6.10986V6.10635V6.10284V6.09933V6.09582V6.09231V6.08881V6.0853V6.08179V6.07828V6.07477V6.07126V6.06776V6.06425V6.06074V6.05724V6.05373V6.05022V6.04672V6.04321V6.0397V6.0362V6.03269V6.02919V6.02568V6.02217V6.01867V6.01516V6.01166V6.00815V6.00465V6.00115V5.99764V5.99414V5.99064V5.98713V5.98363V5.98013V5.97662V5.97312V5.96962V5.96612V5.96261V5.95911V5.95561V5.95211V5.94861V5.94511V5.94161V5.9381V5.9346V5.9311V5.9276V5.9241V5.9206V5.9171V5.91361V5.91011V5.90661V5.90311V5.89961V5.89611V5.89261V5.88912V5.88562V5.88212V5.87862V5.87513V5.87163V5.86813V5.86464V5.86114V5.85765V5.85415V5.85065V5.84716V5.84366V5.84017V5.83668V5.83318V5.82969V5.82619V5.8227V5.81921V5.81571V5.81222V5.80873V5.80523V5.80174V5.79825V5.79476V5.79127V5.78777V5.78428V5.78079V5.7773V5.77381V5.77032V5.76683V5.76334V5.75985V5.75636V5.75287V5.74938V5.7459V5.74241V5.73892V5.73543V5.73194V5.72846V5.72497V5.72148V5.718V5.71451V5.71102V5.70754V5.70405V5.70057V5.69708V5.6936V5.69011V5.68663V5.68314V5.67966V5.67618V5.67269V5.66921V5.66573V5.66224V5.65876V5.65528V5.6518V5.64831V5.64483V5.64135V5.63787V5.63439V5.63091V5.62743V5.62395V5.62047V5.61699V5.61351V5.61003V5.60656V5.60308V5.5996V5.59612V5.59264V5.58917V5.58569V5.58221V5.57874V5.57526V5.57179V5.56831V5.56484V5.56136V5.55789V5.55441V5.55094V5.54746V5.54399V5.54052V5.53704V5.53357V5.5301V5.52663V5.52315V5.51968V5.51621V5.51274V5.50927V5.5058V5.50233V5.49886V5.49539V5.49192V5.48845V5.48498V5.48151V5.47805V5.47458V5.47111V5.46764V5.46418V5.46071V5.45724V5.45378V5.45031V5.44685V5.44338V5.43992V5.43645V5.43299V5.42952V5.42606V5.4226V5.41913V5.41567V5.41221V5.40875V5.40528V5.40182V5.39836V5.3949V5.39144V5.38798V5.38452V5.38106V5.3776V5.37414V5.37068V5.36722V5.36377V5.36031V5.35685V5.35339V5.35096C21.9465 5.3416 21.9828 5.33244 22.0185 5.32344C22.2985 5.25283 22.5419 5.19144 22.7779 5.11282C23.0559 5.02294 23.2886 4.87332 23.4386 4.67893C23.5915 4.48086 23.6598 4.23076 23.5798 3.97832L23.5796 3.97769C23.5399 3.85387 23.5079 3.73731 23.4725 3.60814C23.4715 3.60447 23.4705 3.60078 23.4694 3.59709C23.5949 3.54463 23.7183 3.49179 23.8366 3.43264L23.8366 3.43266L23.8396 3.43109C23.9774 3.35982 24.1254 3.24867 24.2169 3.09868C24.3163 2.9357 24.347 2.72313 24.2206 2.51695C24.175 2.43878 24.1426 2.34155 24.1097 2.21748C24.102 2.18854 24.0941 2.15704 24.0857 2.12393C24.0612 2.02655 24.0332 1.91527 23.9979 1.81436C23.9485 1.6728 23.8757 1.52046 23.7485 1.39191C23.6377 1.2799 23.4969 1.19723 23.3213 1.14815C23.1267 0.69223 22.7295 0.519968 22.384 0.404972C22.3833 0.269531 22.3487 0.135599 22.2499 0.0249306C22.1018 -0.140972 21.8749 -0.177862 21.6674 -0.177862C21.3329 -0.177862 20.9941 -0.200848 20.6836 -0.273059L20.683 -0.273191C20.1805 -0.388828 19.7516 -0.309526 19.3876 -0.0980716C19.032 0.108511 18.7541 0.431893 18.5251 0.779449L18.5251 0.77941L18.5219 0.784487C18.507 0.808306 18.4741 0.843013 18.4235 0.876288ZM3.84732 22.8362C3.83167 23.0787 4.04288 23.462 4.2541 23.5793L3.84732 22.8362Z" fill="#274D44" stroke="#274D44" stroke-width="0.5"/>
<path d="M13.603 32.6612C13.8218 32.717 14.0448 32.7438 14.2553 32.7646C14.3076 32.7697 14.3587 32.7745 14.409 32.7792C14.5663 32.7938 14.7148 32.8076 14.862 32.8302C15.0795 32.8649 15.2953 32.9086 15.5167 32.9535C15.5633 32.9629 15.6101 32.9724 15.6573 32.9819C15.926 33.0358 16.2025 33.0884 16.4834 33.121L16.4842 33.1211C17.281 33.2109 18.0792 33.2808 18.8739 33.3503C19.1906 33.378 19.5067 33.4057 19.8219 33.4345L19.8242 33.4348C20.3229 33.4815 20.8285 33.5289 21.3349 33.5527L21.3359 33.5527C21.6008 33.564 21.8649 33.5611 22.1205 33.5583C22.1369 33.5582 22.1534 33.558 22.1697 33.5578C22.4432 33.5549 22.7069 33.5531 22.9671 33.5682L22.9674 33.5682C23.6677 33.608 24.3618 33.6685 24.9496 33.7198C25.166 33.7387 25.368 33.7563 25.5506 33.7711L25.5773 33.7733L13.6648 32.419M13.603 32.6612L13.6648 32.419M13.603 32.6612C13.603 32.6612 13.6031 32.6612 13.6031 32.6612L13.6648 32.419M13.603 32.6612C13.0303 32.5154 12.473 32.3595 11.9194 32.2046C11.1988 32.003 10.4845 31.8031 9.75067 31.6297L9.75036 31.6296C9.2826 31.5184 8.80386 31.4376 8.31549 31.3552L8.31143 31.3545C7.82718 31.2728 7.3334 31.1895 6.84815 31.0742L6.84782 31.0741C6.11805 30.8996 5.3709 30.6674 4.68309 30.3276L4.68203 30.3271C3.79208 29.8821 2.94486 29.3512 2.13441 28.8004L2.13362 28.7999C1.68721 28.494 1.28296 28.098 0.96876 27.6598L0.968055 27.6588L0.968057 27.6588C0.852357 27.4958 0.787621 27.2925 0.758478 27.0986C0.729087 26.903 0.732815 26.6969 0.770797 26.5163M13.6648 32.419C13.1069 32.277 12.552 32.1218 11.9975 31.9668C11.2689 31.7631 10.5411 31.5596 9.80818 31.3864C9.33099 31.2729 8.84403 31.1908 8.35707 31.1087C7.87011 31.0265 7.38315 30.9444 6.90596 30.831C6.18628 30.6589 5.45877 30.432 4.79384 30.1034C3.9177 29.6654 3.08067 29.1413 2.27493 28.5937C1.85251 28.3042 1.4692 27.9287 1.17193 27.5141C0.999835 27.2716 0.952899 26.8649 1.01548 26.5676M0.770797 26.5163C0.770776 26.5164 0.770756 26.5165 0.770735 26.5166L1.01548 26.5676M0.770797 26.5163C0.770812 26.5162 0.770827 26.5162 0.770843 26.5161L1.01548 26.5676M0.770797 26.5163C0.792914 26.4105 0.851749 26.3236 0.908404 26.2598C0.967334 26.1934 1.03885 26.135 1.11188 26.0865C1.25316 25.9927 1.43401 25.9138 1.59935 25.8966C1.76661 25.8785 1.96391 25.8829 2.15002 25.9194C2.32979 25.9547 2.53213 26.0265 2.67663 26.1698C3.8631 27.3103 5.31211 27.9513 6.8892 28.3513L6.89003 28.3516C7.70108 28.5602 8.5133 28.7113 9.33365 28.8639C9.86515 28.9628 10.4001 29.0623 10.9403 29.1785L10.9408 29.1786C11.4879 29.2975 12.0515 29.4499 12.5792 29.6691C12.9253 29.8118 13.2842 29.8731 13.6622 29.9062C13.8495 29.9227 14.0383 29.932 14.2328 29.9416L14.2394 29.9419C14.4347 29.9515 14.6357 29.9615 14.8371 29.9796L14.838 29.9797C15.0077 29.9956 15.176 30.0123 15.3435 30.0288C15.6757 30.0617 16.0048 30.0943 16.3361 30.1202L16.3406 30.1205L16.3406 30.1206C16.5967 30.1453 16.8581 30.1678 17.1211 30.1905C17.514 30.2244 17.9107 30.2587 18.2993 30.3008C18.4941 30.3215 18.6848 30.3566 18.8661 30.3907C18.8793 30.3932 18.8925 30.3956 18.9056 30.3981C19.0754 30.4301 19.2368 30.4605 19.3992 30.4813L19.3998 30.4814C19.9414 30.552 20.4704 30.6208 21.0053 30.6438L21.0072 30.6438C21.7767 30.6827 22.5468 30.6983 23.3258 30.6983C23.4033 30.6983 23.4808 30.6984 23.5581 30.6985C24.1796 30.6992 24.7934 30.7 25.3946 30.6521L25.3948 30.6521C26.0053 30.6039 26.6116 30.5229 27.2256 30.4409C27.5016 30.404 27.7791 30.3669 28.0593 30.3325L28.0598 30.3324C28.4617 30.2838 28.8594 30.2411 29.256 30.1985C29.8305 30.1368 30.4026 30.0753 30.9818 29.9965L30.9837 29.9963C31.1121 29.9798 31.2425 29.9429 31.3857 29.8955C31.4286 29.8812 31.4744 29.8655 31.5218 29.8491C31.6235 29.814 31.7328 29.7764 31.8378 29.746L1.62565 26.1452C1.39879 26.1686 1.05459 26.3798 1.01548 26.5676M36.4131 31.4411C36.8121 31.3473 37.0233 31.183 36.9842 30.7606C36.9529 30.4476 36.8512 30.1347 36.7339 29.8375C36.4679 29.1647 35.9672 28.8205 35.4197 28.9613M36.4131 31.4411L30.7182 32.8492L30.7687 33.0941C30.7688 33.094 30.7689 33.094 30.769 33.094C31.516 32.94 32.2573 32.7524 32.9929 32.5663C33.2723 32.4955 33.551 32.425 33.8288 32.3566L33.8292 32.3565C34.1954 32.2658 34.5545 32.1713 34.9113 32.0774C35.4305 31.9408 35.9448 31.8054 36.4692 31.6848L36.4704 31.6845C36.6833 31.6344 36.8966 31.5556 37.0464 31.3939C37.2072 31.2202 37.2569 30.9944 37.2331 30.7375L37.2329 30.7357C37.1982 30.3884 37.0866 30.0502 36.9664 29.7457L36.9664 29.7456C36.8198 29.375 36.6008 29.0745 36.3219 28.8869C36.0384 28.6962 35.7037 28.6305 35.3586 28.7189M36.4131 31.4411C35.8872 31.5621 35.364 31.6998 34.8403 31.8375M36.4131 31.4411L34.8403 31.8375M35.4197 28.9613L35.3597 28.7186C35.3594 28.7187 35.359 28.7188 35.3586 28.7189M35.4197 28.9613C34.9704 29.0723 34.525 29.2107 34.0808 29.3488C33.8985 29.4055 33.7165 29.4621 33.5344 29.5167L35.3586 28.7189M35.4197 28.9613L35.3574 28.7192C35.3578 28.7191 35.3582 28.719 35.3586 28.7189M34.8403 31.8375C34.4838 31.9313 34.1271 32.0252 33.7691 32.1139L34.8403 31.8375ZM23.5579 30.9485C24.1781 30.9493 24.8025 30.95 25.4144 30.9014L20.9946 30.8935C21.7691 30.9327 22.5435 30.9483 23.3258 30.9483C23.4031 30.9483 23.4805 30.9484 23.5579 30.9485ZM28.6765 33.1152C28.0084 33.1938 27.3364 33.2845 26.5533 33.3901C26.2452 33.4317 25.9199 33.4756 25.5709 33.522L28.6765 33.1152Z" fill="#274D44" stroke="#274D44" stroke-width="0.5"/>
</svg>
