<svg width="48" height="44" viewBox="0 0 48 44" fill="none" xmlns="http://www.w3.org/2000/svg">
<path d="M25.0653 9.94236C24.3459 9.0709 24.6093 8.07784 24.3864 7.18612C24.3053 6.86186 23.8595 6.63893 23.5859 6.3552C23.4035 6.15253 23.2008 5.94987 23.0792 5.70667C22.9373 5.45334 22.8765 5.14934 22.7651 4.87575C22.5523 4.36908 22.299 3.88269 22.1267 3.37603C21.9747 2.93017 22.5624 2.20058 23.0387 2.10938C23.2312 2.06884 23.4541 1.92698 23.5555 1.76485C24.1229 0.903523 24.8627 0.275264 26.0077 0.538728C26.4434 0.64006 26.9096 0.670459 27.3554 0.670459C27.852 0.670459 28.0344 0.86299 27.933 1.32912C28.4701 1.50138 28.997 1.65338 29.2199 2.24111C29.2402 2.28164 29.2706 2.34244 29.3111 2.35257C30.2333 2.53497 30.0509 3.43683 30.3853 4.00429C30.5677 4.29815 30.3143 4.58188 30.0205 4.73388C29.7975 4.84535 29.5645 4.93654 29.301 5.04801C29.3821 5.33174 29.4429 5.57494 29.5239 5.82827C29.6557 6.24373 29.3213 6.68959 28.693 6.89226C28.2978 7.02399 27.8925 7.11519 27.3453 7.25705C27.3453 8.01704 27.3453 8.7973 27.3453 9.57756C27.3453 9.87142 27.4872 9.97275 27.781 10.0133C29.7874 10.2362 31.6519 10.9861 33.5671 11.5738C35.1884 12.0703 36.6071 12.9114 37.9142 13.9348C38.654 14.5124 39.3126 15.1914 40.0017 15.8298C40.5489 16.3364 41.1163 16.8228 41.6433 17.3396C41.8459 17.5423 41.9473 17.8463 42.1297 18.0692C43.2139 19.3663 43.7915 20.9369 44.5616 22.4062C45.5547 24.3011 45.96 26.3784 46.6997 28.3544C46.8315 28.7091 46.8923 29.1144 46.8619 29.4893C46.8416 29.7123 46.6085 30.0568 46.416 30.0973C46.0918 30.1784 45.6864 30.1379 45.3723 30.0061C44.9872 29.8541 44.8352 29.388 44.3184 29.2563C43.9942 29.1752 43.7206 28.5875 43.5584 28.1821C42.8593 26.348 42.2817 24.4633 41.5115 22.6595C40.7819 20.9268 39.9105 19.2447 38.4817 17.9375C37.6102 17.1369 36.7996 16.2554 35.8673 15.5359C35.2188 15.0394 34.4386 14.6847 33.6786 14.3706C32.7058 13.9754 31.7127 13.6106 30.6893 13.3471C29.7165 13.0938 28.7133 12.8607 27.7202 12.8303C26.1293 12.7898 24.5384 12.8709 22.9475 13.0127C21.2451 13.1647 19.6441 13.7322 18.0633 14.3503C15.4996 15.3636 13.2297 16.8532 11.2537 18.7481C10.3316 19.6398 9.63243 20.7545 8.84204 21.7678C8.49751 22.2137 8.13271 22.6595 7.82872 23.1358C7.32206 23.9262 6.82553 24.7166 6.37967 25.5374C5.82234 26.5608 5.29541 27.5944 4.78875 28.6483C4.55569 29.1245 4.31249 29.6413 4.27196 30.1581C4.25169 30.4723 4.52529 30.9688 4.79888 31.1208C5.43728 31.4754 6.1466 31.6984 6.85593 31.9112C8.24418 32.3165 9.63243 32.6914 11.0409 33.0461C11.8009 33.2386 12.5812 33.3298 13.3412 33.5021C14.395 33.7453 15.4388 34.0189 16.4825 34.2925C16.8777 34.3938 17.2627 34.485 17.6478 34.5965C19.4313 35.1031 21.2755 35.1943 23.1197 35.2957C23.6669 35.3261 24.2141 35.2247 24.7715 35.2045C27.0616 35.1437 29.3415 35.1031 31.6316 35.0525C32.9287 35.0221 34.2258 35.0221 35.5025 34.9005C36.5159 34.7991 37.5089 34.5154 38.5222 34.3229C39.3126 34.1709 40.1132 33.9682 40.9137 33.8872C41.1873 33.8568 41.5622 34.0898 41.775 34.3127C42.2107 34.7991 42.6059 35.3463 42.5249 36.0759C42.4742 36.5522 42.2513 36.7042 41.7851 36.7751C40.559 36.9474 39.3532 37.1906 38.127 37.373C36.7793 37.5756 35.4417 37.7884 34.0839 37.8898C32.6348 38.0012 31.1655 38.0012 29.7063 38.0418C28.7133 38.0722 27.7202 38.1127 26.7272 38.0924C25.116 38.0519 23.5048 37.981 21.8936 37.8898C20.9918 37.8391 20.0899 37.7884 19.2083 37.6263C17.9518 37.3831 16.7054 37.0285 15.459 36.7346C14.8612 36.5927 14.2532 36.4711 13.6655 36.3191C12.2164 35.9442 10.7775 35.5591 9.33857 35.1639C8.49751 34.9309 7.64632 34.7181 6.82553 34.4343C5.75141 34.0696 4.69755 33.6642 3.6437 33.2386C3.25863 33.0866 2.89384 32.8536 2.55944 32.6002C2.39731 32.4786 2.32638 32.2557 2.22505 32.0632C1.56639 30.8573 1.58665 29.6008 2.02238 28.3544C2.49864 26.9966 3.02557 25.6691 3.83623 24.4531C4.73808 23.1054 5.45754 21.6361 6.28847 20.2377C6.5418 19.8121 6.90659 19.4473 7.19032 19.042C7.53485 18.5657 7.90978 18.0996 8.15298 17.5828C8.40631 17.0457 8.83191 16.6911 9.23723 16.3162C9.86549 15.7386 10.5242 15.1914 11.2031 14.6746C12.4596 13.7119 13.8478 12.9621 15.307 12.3439C16.1076 11.9994 16.8473 11.513 17.6681 11.2394C18.9145 10.8239 20.1406 10.3274 21.4883 10.2565C22.4915 10.2058 23.4845 10.0336 24.4776 9.92209C24.6296 9.93222 24.7613 9.94236 25.0653 9.94236Z" fill="#FDF5E6"/>
<path d="M32.4118 43.9998C31.5403 43.9289 30.3041 43.8073 29.0577 43.7364C28.3585 43.6958 27.6492 43.7465 26.9399 43.7161C26.2913 43.6857 25.6428 43.6249 24.9943 43.5641C23.5554 43.4324 22.1164 43.3209 20.6775 43.1588C19.9783 43.0777 19.2893 42.8953 18.5901 42.7838C18.0632 42.7028 17.5058 42.7028 16.989 42.571C15.3171 42.1454 13.6653 41.6286 11.9934 41.2335C10.7571 40.9396 9.47019 40.8079 8.23393 40.514C7.30168 40.2911 6.35929 39.9972 5.49796 39.5716C4.36304 39.0041 3.27879 38.3252 2.23507 37.6159C1.68787 37.241 1.19135 36.7546 0.806284 36.2175C0.583353 35.9034 0.522554 35.3765 0.60362 34.9914C0.654286 34.7482 1.10015 34.4746 1.39401 34.4442C1.76894 34.4037 2.28573 34.4645 2.52893 34.7077C4.11985 36.2378 6.05529 37.089 8.1326 37.6159C9.86538 38.0618 11.6488 38.3151 13.3917 38.69C14.0909 38.842 14.8003 39.0345 15.4589 39.3081C16.4418 39.7135 17.4653 39.6425 18.4786 39.7337C19.1271 39.7945 19.7757 39.8655 20.4242 39.9161C21.2653 39.9972 22.1164 40.058 22.9575 40.1492C23.4338 40.1999 23.8999 40.3215 24.3762 40.3823C25.0753 40.4735 25.7745 40.5647 26.4839 40.5951C27.4871 40.6457 28.4902 40.666 29.5036 40.666C30.4054 40.666 31.3174 40.6761 32.2091 40.6052C33.3643 40.514 34.5195 40.3316 35.6747 40.1897C36.9312 40.0377 38.1979 39.9263 39.4645 39.754C39.8597 39.7033 40.2346 39.5311 40.6197 39.4196C41.3189 39.2169 42.0282 39.0244 42.7274 38.8116C43.5381 38.5684 44.3487 38.2948 45.1695 38.0922C45.8788 37.9098 46.5274 38.3556 46.8719 39.2271C47.0239 39.6121 47.1556 40.0175 47.1962 40.4228C47.2468 40.97 46.9732 41.1828 46.4564 41.3044C45.3114 41.5678 44.1765 41.8921 43.0314 42.1758C41.7141 42.5001 40.4069 42.8548 39.0795 43.1284C38.208 43.3108 37.3163 43.3513 36.4347 43.4729C35.2288 43.6148 34.0128 43.787 32.4118 43.9998Z" fill="#FDF5E6"/>
</svg>
