<svg width="42" height="40" viewBox="0 0 42 40" fill="none" xmlns="http://www.w3.org/2000/svg">
<path d="M39.6935 34.6316C37.9569 34.5907 36.6902 33.5283 35.4235 32.6089C32.1138 30.2185 28.8857 27.726 25.6577 25.2539C24.7792 24.5797 24.0028 23.742 23.1243 23.0474C21.878 22.0871 20.8973 22.1076 19.8962 23.2926C16.4026 27.3991 12.4595 31.1583 9.49704 35.7348C8.92498 36.6133 8.18948 37.3897 7.49484 38.1865C6.67761 39.1467 5.65608 39.2489 4.59368 38.5338C3.26569 37.6553 2.9388 36.1026 3.87861 34.8154C6.94321 30.5863 10.0282 26.3367 13.7058 22.5979C14.5843 21.699 15.3811 20.7183 16.2187 19.7785C16.8521 19.0838 16.8112 18.3483 16.0348 17.6333C14.666 16.3666 13.2563 15.1203 11.867 13.8945C8.61852 11.0546 5.34962 8.21473 2.12158 5.35444C1.79469 5.06841 1.52909 4.59851 1.42694 4.16946C1.16134 2.8619 1.99899 2.10597 3.18397 2.6576C4.36895 3.20923 5.59479 3.84257 6.55503 4.72109C10.0078 7.90827 13.5627 10.9524 17.3628 13.7106C17.7919 14.0375 18.1801 14.4256 18.6091 14.773C19.7124 15.6515 20.3253 15.7741 21.449 14.916C22.9813 13.7514 24.4114 12.4234 25.862 11.1363C27.8233 9.39971 29.7642 7.64267 31.6643 5.84477C32.788 4.80281 33.8095 3.6587 34.8923 2.57587C35.2805 2.20812 35.6891 1.84037 36.159 1.57477C37.201 1.00271 40.1021 2.9232 39.8978 4.06731C39.8161 4.57808 39.3666 5.08884 38.9785 5.45659C36.159 8.07172 33.3192 10.646 30.4793 13.2407C28.9061 14.6912 27.2717 16.0805 25.7394 17.572C24.3501 18.9204 24.4114 19.6967 25.9233 20.9226C28.7223 23.1904 31.5008 25.4786 34.3611 27.6443C35.6074 28.5841 37.1193 29.1357 38.386 30.0347C39.3258 30.7089 40.2247 31.567 40.8989 32.4863C41.6957 33.5692 41.0011 34.652 39.6935 34.6316Z" fill="#274D44" stroke="#274D44" stroke-width="1.11913"/>
</svg>
