<svg width="47" height="44" viewBox="0 0 47 44" fill="none" xmlns="http://www.w3.org/2000/svg">
<path d="M43.8802 38.1115C41.9367 38.0657 40.5191 36.8768 39.1015 35.8479C35.3974 33.1727 31.7848 30.3832 28.1722 27.6166C27.189 26.862 26.3202 25.9246 25.337 25.1472C23.9423 24.0726 22.8448 24.0954 21.7244 25.4216C17.8145 30.0174 13.4017 34.2245 10.0863 39.3461C9.44607 40.3293 8.62295 41.1982 7.84554 42.0899C6.93096 43.1645 5.78773 43.2789 4.59877 42.4786C3.11257 41.4954 2.74673 39.7577 3.79851 38.3172C7.2282 33.5842 10.6808 28.8284 14.7964 24.6442C15.7796 23.6381 16.6713 22.5406 17.6087 21.4889C18.3176 20.7115 18.2718 19.8883 17.403 19.0881C15.871 17.6705 14.2934 16.2757 12.7386 14.9038C9.1031 11.7257 5.44476 8.54747 1.83215 5.34642C1.46631 5.02632 1.16907 4.50043 1.05475 4.02028C0.757511 2.55694 1.69496 1.71095 3.02111 2.32829C4.34726 2.94564 5.71914 3.65444 6.79377 4.63762C10.6579 8.2045 14.6363 11.6113 18.8892 14.6981C19.3693 15.0639 19.8038 15.4983 20.2839 15.887C21.5186 16.8702 22.2045 17.0074 23.4621 16.0471C25.1769 14.7438 26.7775 13.2576 28.4009 11.8171C30.5959 9.87363 32.768 7.90726 34.8944 5.89517C36.152 4.72908 37.2952 3.44866 38.507 2.23683C38.9415 1.82527 39.3987 1.41371 39.9246 1.11647C41.0907 0.476257 44.3375 2.62554 44.1089 3.90596C44.0174 4.47757 43.5144 5.04918 43.08 5.46075C39.9246 8.38742 36.7464 11.2684 33.5683 14.1722C31.8077 15.7956 29.9785 17.3504 28.2637 19.0195C26.7089 20.5285 26.7775 21.3974 28.4695 22.7693C31.6019 25.3073 34.7115 27.8681 37.9125 30.2917C39.3073 31.3435 40.9993 31.9609 42.4169 32.9669C43.4687 33.7214 44.4747 34.6818 45.2292 35.7107C46.121 36.9225 45.3436 38.1343 43.8802 38.1115Z" fill="#FDF5E6" stroke="#FDF5E6" stroke-width="1.11913"/>
</svg>
