<svg width="47" height="46" viewBox="0 0 47 46" fill="none" xmlns="http://www.w3.org/2000/svg">
<path fill-rule="evenodd" clip-rule="evenodd" d="M3.63188 0.000488281C2.0141 0.000488281 0.702637 1.31196 0.702637 2.92974V42.9628C0.702637 44.5805 2.01411 45.892 3.63188 45.892H43.6649C45.2827 45.892 46.5941 44.5805 46.5941 42.9627V2.92973C46.5941 1.31196 45.2827 0.000488281 43.6649 0.000488281H3.63188ZM38.0021 13.0347C38.3748 13.9932 38.635 15.0993 38.7059 16.7083C38.7769 18.3233 38.7829 18.8379 38.7829 22.9491C38.7829 27.0604 38.7651 27.575 38.6941 29.19C38.6232 30.7989 38.3628 31.8993 37.9903 32.8636C37.2035 34.8984 35.5945 36.5074 33.5595 37.2942C32.6012 37.6669 31.495 37.9271 29.8861 37.998C28.2711 38.0692 27.7565 38.0868 23.6452 38.0868C19.534 38.0868 19.0192 38.0692 17.4044 37.998C15.7952 37.9271 14.6951 37.6669 13.7308 37.2942C12.7252 36.9157 11.8083 36.3181 11.051 35.5491C10.282 34.7919 9.6847 33.881 9.3002 32.8636C8.92747 31.9051 8.66705 30.7989 8.59612 29.19C8.52518 27.575 8.50738 27.0604 8.50738 22.9491C8.50738 18.8379 8.52518 18.3233 8.60212 16.7023C8.67306 15.0933 8.93325 13.9932 9.30597 13.0289C9.6847 12.0233 10.282 11.1064 11.051 10.3492C11.8083 9.57414 12.7192 8.98259 13.7368 8.59809C14.6951 8.2256 15.8012 7.96518 17.4102 7.89424C19.0252 7.8233 19.5398 7.80551 23.651 7.80551C27.7623 7.80551 28.2769 7.8233 29.8979 7.90025C31.5068 7.97119 32.6072 8.23137 33.5712 8.6041C34.5769 8.98259 35.4938 9.58015 36.251 10.3492C37.026 11.1064 37.6176 12.0173 38.0021 13.0347ZM35.4584 31.8815C35.6655 31.3491 35.9139 30.5505 35.979 29.0717C36.05 27.4745 36.0678 27.0013 36.0678 22.9609C36.0678 18.9206 36.05 18.4416 35.979 16.8444C35.9139 15.3713 35.6655 14.5669 35.4584 14.0346C35.2158 13.3778 34.8313 12.7863 34.3285 12.2953C33.8434 11.7924 33.2459 11.4079 32.5894 11.1655C32.057 10.9585 31.2584 10.7101 29.7796 10.6449C28.1882 10.574 27.7091 10.5562 23.6628 10.5562C19.6227 10.5562 19.1435 10.574 17.5463 10.6449C16.0734 10.7101 15.2688 10.9585 14.7364 11.1655C14.0797 11.4079 13.4882 11.7924 12.9974 12.2953C12.4886 12.7805 12.104 13.3778 11.8614 14.0346C11.6544 14.5669 11.406 15.3655 11.341 16.8444C11.2699 18.4356 11.2523 18.9206 11.2523 22.9609C11.2523 27.0013 11.2699 27.4805 11.341 29.0777C11.406 30.5505 11.6544 31.3551 11.8614 31.8875C12.104 32.544 12.4886 33.1356 12.9914 33.6266C13.4764 34.1294 14.0739 34.5139 14.7304 34.7565C15.2628 34.9636 16.0614 35.212 17.5403 35.2769C19.1317 35.3481 19.6167 35.3657 23.657 35.3657C27.6974 35.3657 28.1764 35.3481 29.7735 35.2769C31.2466 35.212 32.051 34.9636 32.5834 34.7565C33.9026 34.2477 34.9496 33.2007 35.4584 31.8815ZM15.8726 22.949C15.8726 18.6543 19.3569 15.1702 23.6514 15.1702C27.9462 15.1702 31.4303 18.6543 31.4303 22.949C31.4303 27.2438 27.9462 30.7279 23.6514 30.7279C19.3569 30.7279 15.8726 27.2438 15.8726 22.949ZM18.6055 22.949C18.6055 25.7353 20.8654 27.995 23.6514 27.995C26.4377 27.995 28.6974 25.7353 28.6974 22.949C28.6974 20.1627 26.4377 17.9031 23.6514 17.9031C20.8654 17.9031 18.6055 20.1627 18.6055 22.949ZM33.5539 14.8628C33.5539 15.8657 32.7408 16.6788 31.7377 16.6788C30.7348 16.6788 29.9217 15.8657 29.9217 14.8628C29.9217 13.8597 30.7348 13.0468 31.7377 13.0468C32.7408 13.0468 33.5539 13.8597 33.5539 14.8628Z" fill="#274D44"/>
</svg>
