<svg width="193" height="86" viewBox="0 0 193 86" fill="none" xmlns="http://www.w3.org/2000/svg">
<path fill-rule="evenodd" clip-rule="evenodd" d="M72.1648 8.85083C72.2343 7.46003 72.582 5.99969 72.9993 4.60889C73.7642 2.24453 75.4332 0.784193 77.9366 0.297414C79.8837 -0.119826 81.8308 -0.119826 83.778 0.436494C86.6291 1.27097 87.9503 3.42671 88.5067 6.06923C88.7848 7.46003 88.9935 8.92037 88.9935 10.3807C89.063 16.8479 89.063 23.3847 88.9935 29.8519C88.9935 31.5904 88.6458 33.3984 88.2285 35.0674C87.5331 37.849 85.6555 39.5875 82.7349 40.0743C80.9964 40.3524 79.2579 40.3524 77.5194 39.9352C74.5292 39.1702 72.9993 37.084 72.4429 34.2329C72.0952 32.3553 71.9562 30.4082 71.8866 28.5306C71.9137 27.4465 71.9408 24.7886 71.972 21.726L71.9721 21.7247L71.9721 21.7231L71.9721 21.7207L71.9721 21.7192C72.021 16.9249 72.08 11.1414 72.1648 8.85083ZM83.3607 20.1163V9.19853C83.3607 8.36405 83.1521 7.52957 82.8739 6.76463C82.5262 5.72153 81.6222 5.23475 80.5096 5.23475C79.3969 5.23475 78.4929 5.79107 78.2148 6.83417C78.0061 7.59911 77.7975 8.43359 77.7975 9.26807V30.895C77.7975 31.7295 78.0061 32.5639 78.2148 33.3289C78.5625 34.372 79.3274 34.8588 80.44 34.9283C81.6918 34.9283 82.5262 34.5111 82.8739 33.468C83.1521 32.703 83.2912 31.8685 83.2912 31.0341C83.3954 28.3255 83.3825 25.6169 83.3695 22.8791V22.879V22.8789V22.8782C83.3651 21.9612 83.3607 21.041 83.3607 20.1163ZM68.6177 38.4053V20.1858C68.6177 13.9968 68.6177 7.73816 68.4787 1.41003C68.4787 0.36693 68.27 0.0887704 67.1574 0.0887704H64.3063C63.0545 0.0887704 62.8459 0.29739 62.8459 1.54911V9.8939V15.5266C62.8459 16.1525 62.6373 16.3611 62.0114 16.3611H58.3954C57.2132 16.3611 57.2132 16.3611 57.2132 15.1789V1.47957C57.2132 0.50601 56.935 0.22785 55.9615 0.22785H53.1799C51.7195 0.22785 51.5109 0.43647 51.5109 1.89681V38.4748V39.3093C51.5804 39.9352 51.8586 40.2133 52.4845 40.2133H55.3356C57.2132 40.2133 57.2132 40.1438 57.2132 38.3357V22.8283C57.2132 21.8548 57.2827 21.7852 58.2563 21.7852H61.3856C62.9155 21.7852 62.9155 21.7852 62.9155 23.3846V38.3357C62.9155 38.4216 62.9112 38.5116 62.9069 38.6028L62.9069 38.6029C62.8938 38.881 62.8803 39.1694 62.985 39.3788C63.1241 39.657 63.4718 40.0742 63.7499 40.0742C65.0712 40.1438 66.462 40.1438 67.7833 40.0742C68.0614 40.0742 68.4091 39.657 68.5482 39.3788C68.6521 39.1711 68.6396 38.9246 68.6266 38.6683C68.6222 38.5814 68.6177 38.4933 68.6177 38.4053ZM161.175 75.4699V65.1084C161.175 61.6314 161.175 58.0849 161.106 54.747C161.106 53.843 161.245 52.939 161.523 52.0349C161.871 50.8528 162.775 50.366 163.957 50.366C165.417 50.366 166.252 51.1309 166.46 52.4522C166.669 54.1211 166.739 55.7206 166.739 57.3895C166.739 58.4326 167.156 58.9194 168.199 58.8498H171.12C172.024 58.8498 172.51 58.4326 172.441 57.5286C172.371 56.8033 172.316 56.0702 172.262 55.3344L172.262 55.3335L172.261 55.3326L172.261 55.3316L172.261 55.3305L172.261 55.3295L172.261 55.3285V55.3284C172.154 53.8793 172.045 52.4203 171.815 50.9918C171.467 48.9752 170.424 47.1671 168.547 46.124C163.122 43.0643 156.308 45.9154 155.89 52.0349C155.334 60.7274 155.473 69.4895 155.89 78.2515C156.099 83.2584 159.576 85.4836 164.722 85.0664C164.896 85.0316 165.087 85.0143 165.278 84.9969L165.278 84.9968L165.279 84.9968C165.47 84.9794 165.661 84.9621 165.835 84.9273C168.547 84.5796 170.702 83.2584 171.398 80.6159C172.093 77.9038 172.441 75.5394 172.441 72.7578C172.441 71.9929 172.093 71.2975 171.328 71.2975H168.547C167.225 71.2975 166.739 71.7147 166.739 73.036C166.739 74.705 166.669 76.3739 166.391 77.9733C166.182 79.2251 165.209 79.8509 163.957 79.8509C162.705 79.8509 161.871 79.225 161.523 78.0429C161.314 77.2084 161.175 76.3044 161.175 75.4699ZM150.298 84.8544C149.597 84.8619 149.195 84.8662 148.935 84.6763C148.584 84.4207 148.49 83.813 148.268 82.3869L148.241 82.2154C148.034 81.0389 147.93 80.4479 147.577 80.1509C147.222 79.851 146.613 79.851 145.39 79.851H141.913C140.801 79.851 140.662 80.1987 140.314 81.4505C140.184 81.9262 139.947 82.6708 139.736 83.3331C139.607 83.7359 139.489 84.1082 139.41 84.3711C139.34 84.6493 139.062 84.8579 138.715 84.8579C138.407 84.8579 137.884 84.8444 137.298 84.8292L137.298 84.8292H137.298H137.298H137.297L137.297 84.8292H137.296H137.296L137.295 84.8291H137.295C136.556 84.81 135.719 84.7884 135.098 84.7884C134.612 84.7884 134.334 84.3711 134.403 83.8844C134.89 81.0332 136.559 71.9235 137.393 67.4729L137.397 67.4516C138.717 60.5743 140.037 53.6969 141.357 46.75C141.566 45.4983 142.052 45.0811 143.374 45.0811C144.009 45.1026 144.528 45.1025 144.954 45.1023C145.902 45.1021 146.39 45.1019 146.684 45.3409C146.997 45.5952 147.09 46.1203 147.282 47.2042V47.2043L147.282 47.2045C147.351 47.5999 147.434 48.0696 147.546 48.6276C149.771 60.1017 151.927 71.5063 154.083 82.9803C154.431 84.6493 154.291 84.7884 152.553 84.7884C152.066 84.8579 151.718 84.8579 151.371 84.8579C150.951 84.8474 150.597 84.8512 150.298 84.8544ZM146.781 73.8706C145.947 69.0028 145.182 64.3436 144.417 59.6845C144.417 59.6149 144.347 59.6149 144.347 59.6149H144.069C144 59.6149 144 59.6845 144 59.6845L143.999 59.6848L143.999 59.6862L143.999 59.6888C143.234 64.3465 142.469 69.0043 141.635 73.8011C141.566 74.0792 141.844 74.3574 142.122 74.3574H146.433C146.642 74.3574 146.851 74.0792 146.781 73.8706ZM184.054 68.7247C184.054 68.6551 184.124 68.5856 184.263 68.5856C184.332 68.5856 184.472 68.6551 184.541 68.7942C184.75 70.0459 186.21 77.4172 186.975 81.2418C187.098 81.8759 187.183 82.4002 187.253 82.8335L187.254 82.8366L187.254 82.837C187.42 83.8608 187.503 84.3757 187.806 84.6306C188.112 84.8884 188.642 84.8801 189.709 84.8634C190.172 84.8561 190.736 84.8473 191.426 84.8579C193.025 84.8579 193.164 84.5798 192.886 83.0499C192.69 82.0525 192.495 81.0537 192.299 80.054L192.298 80.0496L192.298 80.0475L192.297 80.0459C191.102 73.9384 189.898 67.7941 188.644 61.7011C188.366 60.2408 188.435 58.9195 188.922 57.5287C190.174 53.9126 191.356 50.2966 192.538 46.6805C192.816 45.846 192.33 45.1506 191.426 45.1506C191.148 45.1506 190.869 45.1583 190.591 45.1661L190.591 45.1661C190.035 45.1815 189.478 45.197 188.922 45.1506C187.67 45.0115 187.045 45.4983 186.627 46.75C185.624 50.0381 184.487 53.3709 183.359 56.6767L183.359 56.6771L183.359 56.6776C183.079 57.4964 182.801 58.3137 182.524 59.1281C182.455 59.4063 182.246 59.8931 182.107 60.1712C182.038 60.3103 181.899 60.3103 181.829 60.3103C181.759 60.3103 181.69 60.1712 181.69 60.1017V48.8362C181.683 48.3949 181.681 48.0056 181.68 47.6624C181.677 46.3763 181.675 45.7369 181.354 45.4235C181.037 45.1136 180.409 45.1226 179.158 45.1404C178.821 45.1452 178.438 45.1506 178.004 45.1506C175.918 45.1506 175.918 45.2202 175.918 47.3064V82.7022V83.6757C175.918 84.5798 176.405 84.7884 177.657 84.7884H179.812C181.203 84.7884 181.69 84.5798 181.69 83.5367C181.69 82.7145 181.659 81.3792 181.626 79.9719L181.626 79.9698L181.626 79.9669C181.589 78.3998 181.551 76.7442 181.551 75.6091C181.551 74.112 182.981 71.0413 183.71 69.4768L183.71 69.4767L183.711 69.4757L183.711 69.4745C183.862 69.1507 183.983 68.8916 184.054 68.7247ZM70.0781 84.8578H66.0448C65.0712 84.8578 64.5844 84.4406 64.654 83.467V81.659V47.0976C64.654 45.2201 64.7235 45.1505 66.6011 45.1505H73.3465C77.9361 45.2201 80.7872 47.654 81.4131 52.1741C81.8999 55.9988 81.8999 60.3798 79.0487 63.3005C78.7706 63.5786 78.701 63.9263 78.701 64.274C78.7706 64.5522 78.8401 64.7608 79.0487 64.9694C82.2476 67.6119 82.178 74.9832 80.7872 79.9205C79.8832 83.0498 77.5189 84.6492 74.0419 84.7883C72.7206 84.8578 71.3993 84.8578 70.0781 84.8578ZM70.3562 73.1751V78.5297C70.3562 78.8774 70.4258 79.4337 70.7039 79.6423C72.0252 80.6854 75.2936 79.7119 75.5717 76.6521C75.6257 75.9904 75.6798 75.3969 75.7292 74.8537V74.8536V74.8536C75.9343 72.5998 76.0605 71.2131 75.7804 69.42C75.5717 67.9596 74.5286 66.7079 73.2074 66.7079H71.3993C70.5649 66.6384 70.2867 67.0556 70.2867 67.8901C70.3908 69.1398 70.378 70.4675 70.365 71.8147C70.3606 72.2667 70.3562 72.7209 70.3562 73.1751ZM70.3562 55.9292V60.4493C70.3562 60.797 70.5649 61.3533 70.843 61.4924C72.6511 62.466 75.4327 61.2143 75.7108 59.1976C75.989 57.5982 75.989 55.9292 75.9194 54.2603C75.8499 50.8528 74.8763 50.0879 71.4689 50.2269C70.5649 50.2965 70.2867 50.6442 70.2867 51.4787C70.3907 52.5708 70.3781 53.6628 70.3651 54.784C70.3607 55.1621 70.3562 55.5434 70.3562 55.9292ZM49.4942 69.0723C49.5638 69.0723 49.7029 69.0028 49.7029 68.9332C49.7494 68.7471 49.8329 68.4092 49.9439 67.96L49.9444 67.958C50.4973 65.7204 51.7319 60.7247 52.4845 57.9459C52.9362 56.0694 53.4054 54.2103 53.8745 52.3511L53.8746 52.3509L53.8747 52.3506L53.8747 52.3503L53.8748 52.3501L53.8748 52.3498L53.8749 52.3496L53.8749 52.3493L53.875 52.3491L53.8751 52.3488L53.8751 52.3486L53.8752 52.3483L53.8752 52.3481L53.8753 52.3478C54.3447 50.4877 54.8141 48.6275 55.2661 46.75C55.5442 45.7069 55.9615 45.2201 57.1436 45.2201C57.6822 45.229 58.1445 45.2266 58.5413 45.2245H58.5415H58.5417H58.542H58.5422H58.5424H58.5426H58.5428H58.5429H58.5431H58.5433H58.5435H58.5436C59.7166 45.2184 60.3162 45.2153 60.6187 45.5135C60.935 45.8254 60.9264 46.4668 60.9088 47.7788V47.7789V47.779V47.779V47.7791V47.7792V47.7793V47.7794V47.7795V47.7796V47.7798V47.7799C60.9041 48.1288 60.8988 48.5252 60.8988 48.9753V82.7021C60.8988 84.9274 60.8988 84.9274 58.6735 84.9274C58.2792 84.9274 57.9304 84.9335 57.622 84.9388H57.6216H57.6213H57.621H57.6207H57.6205H57.6203H57.6201H57.6199H57.6197H57.6196H57.6194L57.6185 84.9388C56.5384 84.9576 55.9532 84.9677 55.6366 84.6811C55.2623 84.3423 55.2633 83.5888 55.2657 81.9443C55.2659 81.809 55.2661 81.6676 55.2661 81.52C55.2661 79.9323 55.1529 76.9868 55.0655 74.7112C55.0342 73.897 55.0062 73.1686 54.9879 72.6189C54.9879 72.4798 54.7097 72.4102 54.7097 72.6189C54.1534 74.9137 52.8322 80.5464 52.2758 83.2585C51.9977 84.5102 51.5109 85.0665 50.1201 84.997C49.6786 84.9764 49.3084 84.971 48.9955 84.9665H48.9955H48.9954H48.9953H48.9953C48.2425 84.9556 47.8219 84.9495 47.5401 84.7486C47.1832 84.4942 47.049 83.9276 46.7448 82.6434C46.7129 82.5087 46.6792 82.3662 46.6431 82.2154C46.5356 81.7734 46.4117 81.2597 46.277 80.7013C45.6276 78.0086 44.7276 74.2772 44.2092 72.5493C44.1397 72.3407 43.8615 72.4102 43.8615 72.6189C43.792 74.9137 43.792 80.5464 43.792 83.4671C43.792 84.3711 43.0966 85.0665 42.1925 85.0665C41.6972 85.0665 41.1119 85.0485 40.5374 85.0308L40.537 85.0308H40.5366H40.5363H40.5361H40.5359H40.5357C39.9815 85.0137 39.4373 84.997 38.9937 84.997C38.4374 84.997 37.9506 84.5102 37.9506 83.9539V46.4718C37.9506 45.7764 38.5069 45.2201 39.2023 45.2201H40.2454C40.6548 45.2201 41.0089 45.2148 41.3163 45.2101H41.3163C42.3695 45.1942 42.8733 45.1866 43.1688 45.4309C43.4398 45.655 43.5356 46.0909 43.7193 46.9266L43.7193 46.9267L43.7194 46.9272C43.7932 47.2631 43.8813 47.6636 44.0006 48.1408C45.0777 52.2618 46.9432 59.5366 48.1742 64.337L48.1743 64.3374L48.1794 64.3574C48.7738 66.6751 49.2193 68.4124 49.3552 68.9332C49.2856 69.0028 49.4247 69.0723 49.4942 69.0723ZM102.484 65.039V47.0282C102.484 45.3592 102.623 45.2201 104.292 45.2201C105.146 45.24 106.001 45.2485 106.855 45.257H106.855C108.991 45.2783 111.127 45.2996 113.262 45.4983C115.975 45.7069 117.783 47.3759 118.548 49.8793C120.077 55.0253 119.591 65.1781 117.365 67.4729C116.253 68.6551 116.6 70.185 116.879 71.2976C116.999 71.8891 117.116 72.4646 117.231 73.0291L117.231 73.0292C117.915 76.3802 118.519 79.3399 119.173 82.9108C119.521 84.7188 119.312 84.9274 117.504 84.8579C116.805 84.8464 116.245 84.8596 115.794 84.8701C114.883 84.8915 114.417 84.9024 114.136 84.6791C113.842 84.4443 113.754 83.9505 113.573 82.9377L113.573 82.9376C113.495 82.4996 113.399 81.9645 113.262 81.3114C112.567 77.9734 111.872 74.566 111.315 71.1585C111.1 69.9195 110.425 69.9742 109.744 70.0294C109.546 70.0455 109.348 70.0616 109.16 70.0459C108.117 69.9763 108.117 70.6718 108.117 71.4367V82.9803C108.117 84.6493 107.977 84.7884 106.309 84.7884C105.66 84.7782 105.119 84.7859 104.668 84.7922H104.667H104.667H104.666H104.666H104.666H104.665H104.665H104.665C103.562 84.8078 102.998 84.8158 102.711 84.538C102.411 84.2475 102.414 83.6446 102.419 82.4115C102.421 82.0022 102.423 81.5235 102.414 80.9637C102.484 75.6792 102.484 70.3252 102.484 65.0408V65.039ZM108.186 57.5982C108.186 58.6413 108.203 59.4063 108.221 60.1712L108.221 60.172C108.238 60.9367 108.256 61.7014 108.256 62.7442C108.256 64.3436 108.534 65.1086 110.62 65.1086C113.123 65.1086 113.819 63.7873 113.888 61.1448C113.958 58.85 113.958 56.5551 113.888 54.2603C113.819 50.9224 112.845 50.0879 109.507 50.227C108.534 50.2966 108.256 50.6443 108.256 51.5483C108.186 53.5649 108.186 55.5816 108.186 57.5982ZM34.6287 65.3969C34.621 63.9752 34.6133 62.5561 34.6133 61.1447C34.6133 57.0418 34.6133 52.8694 34.5437 48.697C34.5437 48.2636 34.5493 47.8824 34.5543 47.5472C34.5722 46.3305 34.5812 45.7195 34.2802 45.4172C33.9765 45.1121 33.3573 45.1213 32.1133 45.1396H32.1131H32.1128H32.1126H32.1123H32.1119C31.7673 45.1447 31.3747 45.1505 30.9276 45.1505C28.9805 45.1505 28.911 45.22 28.911 47.1672V75.1222C28.911 75.8871 28.7719 76.7216 28.6328 77.5561C28.3547 78.8078 27.6593 79.6423 26.1989 79.7118C24.8081 79.7814 23.9041 79.086 23.5564 77.6256C23.3478 76.7912 23.2782 75.8871 23.2782 75.0527V48.9057C23.2782 48.4118 23.2855 47.9827 23.2919 47.61V47.6098C23.313 46.371 23.3235 45.7542 23.0203 45.4486C22.7196 45.1457 22.1106 45.1487 20.8976 45.1549H20.8975C20.4886 45.1569 20.0111 45.1593 19.4536 45.1505C17.7846 45.1505 17.6455 45.2896 17.6455 46.9585V46.9593C17.6455 56.0688 17.6455 65.1087 17.7151 74.2182C17.7151 76.1653 17.8541 84.7883 25.7817 84.7883C34.6133 84.7883 34.6133 75.6785 34.6133 73.94C34.6597 71.1101 34.6441 68.2493 34.6287 65.3988V65.3987V65.3985V65.3984V65.3982V65.3981V65.398V65.3978V65.3977V65.3976V65.3969ZM84.8903 64.9695V47.0977C84.8903 45.3592 85.0294 45.2201 86.7679 45.2201H97.5466C98.7287 45.2201 99.2155 45.7069 99.146 46.8196C99.1386 47.2607 99.1375 47.6497 99.1365 47.9929V47.9936C99.1328 49.281 99.1309 49.9219 98.8095 50.2419C98.491 50.5592 97.8585 50.5612 96.5991 50.5652C96.2655 50.5663 95.8878 50.5675 95.4604 50.5747H91.5661C90.8012 50.5747 90.523 50.9224 90.523 51.6874V60.2408C90.523 61.2143 91.0098 61.4229 91.8443 61.4229H97.6161C98.6592 61.4229 99.146 61.8402 99.0764 62.8833C99.0675 63.4302 99.0701 63.8996 99.0723 64.3025V64.3031C99.0789 65.4873 99.0822 66.0963 98.7795 66.4064C98.459 66.7347 97.7955 66.7281 96.4296 66.7145C96.1207 66.7114 95.7758 66.708 95.3908 66.708H91.6357C90.8707 66.708 90.4535 66.9166 90.4535 67.8206V78.5298C90.4535 79.4338 90.9403 79.5729 91.6357 79.5729H97.4075C98.5201 79.5729 99.0069 79.9901 99.0069 81.1027C99.0004 81.51 98.9982 81.8741 98.9962 82.1994C98.9872 83.638 98.983 84.32 98.6404 84.6415C98.3316 84.9314 97.7479 84.9285 96.638 84.9228C96.2626 84.9209 95.8269 84.9187 95.3213 84.9274C94.3503 84.9274 93.3716 84.9198 92.3903 84.912H92.3901H92.3899H92.3896H92.3894H92.3892H92.389H92.3887C90.419 84.8966 88.4389 84.881 86.4897 84.9274C85.1684 84.997 84.6817 84.4407 84.7512 83.1889C84.8903 77.0694 84.8903 71.0195 84.8903 64.9695ZM0.816248 47.0978V64.9696C0.816248 66.1796 0.81903 67.3896 0.821811 68.5996C0.832938 73.4395 0.844064 78.2795 0.677168 83.1195C0.607628 84.4408 1.09441 84.858 2.41567 84.858C3.84126 84.8232 5.26686 84.8406 6.69245 84.858C8.11799 84.8754 9.54354 84.8928 10.9691 84.858C11.6657 84.8471 12.2397 84.8601 12.7126 84.8708C13.7426 84.8941 14.2931 84.9065 14.5873 84.638C14.9251 84.3298 14.9251 83.6514 14.9251 82.1939C14.9251 81.7802 14.9251 81.3037 14.9329 80.7551C14.9329 79.5034 14.4461 79.0862 13.2639 79.1557C12.2001 79.202 11.1056 79.1867 10.0007 79.1713C9.4444 79.1635 8.88548 79.1557 8.32656 79.1557C7.38777 79.1557 6.91838 79.1557 6.68368 78.921C6.44898 78.6863 6.44898 78.2169 6.44898 77.2781V48.9059C6.44898 48.4632 6.45428 48.0727 6.45896 47.7284L6.45896 47.7284C6.47656 46.4325 6.48527 45.7909 6.16892 45.4789C5.85866 45.1729 5.23576 45.184 4.00199 45.2059C3.62561 45.2126 3.19237 45.2202 2.69383 45.2202C0.885788 45.2202 0.816248 45.3593 0.816248 47.0978ZM132.038 76.9998C131.899 81.0331 129.952 83.5366 126.753 84.3711C125.951 84.5714 125.366 84.6275 124.66 84.6951C124.386 84.7214 124.093 84.7494 123.763 84.7883C122.858 84.8578 121.815 84.5101 121.885 83.5366V81.4504C121.824 79.9807 121.87 79.967 123.592 79.4623L123.593 79.462C123.826 79.3937 124.09 79.3163 124.388 79.2251C125.501 78.8774 126.266 78.1125 126.405 76.9998C126.614 75.7481 126.683 74.4268 126.683 73.1751V47.1672C126.683 45.2201 126.753 45.1505 128.7 45.1505C129.21 45.1595 129.65 45.1569 130.03 45.1547H130.03H130.03H130.03H130.031C131.135 45.1482 131.725 45.1447 132.039 45.4374C132.399 45.7731 132.395 46.4984 132.388 48.0558V48.056C132.387 48.2958 132.385 48.5553 132.385 48.8361C132.363 50.1521 132.341 52.9702 132.314 56.3683C132.257 63.565 132.179 73.3626 132.038 76.9998ZM110.203 1.75765V20.1162H110.412V32.7725V38.7529C110.412 39.6569 110.62 39.9351 111.455 39.9351H123.624C124.389 39.9351 124.667 39.6569 124.667 38.8224V35.9713C124.667 34.8587 124.389 34.5805 123.207 34.5805H117.087C116.114 34.5805 116.044 34.511 116.044 33.6069V22.6196C116.044 21.9242 116.253 21.6461 117.018 21.6461H123.415C124.32 21.6461 124.598 21.3679 124.598 20.4639V17.6128C124.598 16.5697 124.32 16.2915 123.276 16.2915H117.087C116.044 16.2915 115.975 16.222 115.975 15.1789V6.5559C115.975 5.58235 116.114 5.44327 117.087 5.44327H123.415C124.32 5.44327 124.598 5.23465 124.598 4.33063V1.54903C124.598 0.36685 124.32 0.15823 123.137 0.15823H111.802C110.412 0.15823 110.203 0.36685 110.203 1.75765ZM96.2948 22.5501V6.83406C96.2948 5.5128 96.2948 5.5128 94.9735 5.5128H91.6356C90.9402 5.5128 90.5925 5.23465 90.5925 4.46971V1.40995C90.5925 0.43639 90.8011 0.15823 91.8442 0.15823H106.309C107.421 0.15823 107.699 0.43639 107.699 1.54903V4.40017C107.699 5.23465 107.421 5.5128 106.587 5.5128H103.04C102.136 5.5128 101.997 5.65188 101.997 6.5559V24.7754V38.6138C101.997 39.9351 101.858 40.0741 100.467 40.0741H97.2683C96.5729 40.0741 96.2948 39.7264 96.2252 39.1006V38.1966C96.2948 33.0506 96.2948 27.7656 96.2948 22.5501ZM128.005 1.68817V20.1163C128.005 26.3748 128.005 32.6334 128.074 38.892C128.074 39.8656 128.283 40.1438 129.187 40.1438H141.217C142.121 40.1438 142.4 39.8656 142.4 38.9616V35.6237C142.4 34.7196 142.121 34.4415 141.148 34.4415H135.446C133.777 34.4415 133.777 34.4415 133.777 32.7725V2.24449V1.34047C133.707 0.436454 133.499 0.227834 132.594 0.227834H129.535C128.213 0.227834 128.005 0.366914 128.005 1.68817Z" fill="#274D44"/>
</svg>
