<svg width="504" height="64" viewBox="0 0 504 64" fill="none" xmlns="http://www.w3.org/2000/svg">
<path d="M449.589 44.176C447.636 45.7765 443.19 49.6353 441.358 51.3551C439.648 49.8715 436.113 47.1651 433.916 45.6255V45.3624C434.552 45.1529 434.971 44.5828 434.971 43.187V26.7242C433.2 25.4793 430.345 23.628 428.449 22.4441L426.539 24.354V43.9787L429.504 46.1517C429.504 46.1517 425.343 49.6353 423.512 51.3551C421.865 49.8131 419.453 48.0152 417.256 46.4148V46.2175C417.892 46.0104 418.308 45.3746 418.308 43.9787V26.7242C416.54 25.4793 413.75 23.7595 411.855 22.5756L409.553 24.354V43.9787L412.515 46.1517C412.515 46.1517 408.471 49.4063 406.523 51.2894C404.691 49.6889 402.708 48.2296 400.267 46.4148V46.2833C400.954 46.0129 401.385 45.1871 401.385 44.2419V24.4197L399.149 22.5098L396.71 24.7486L395.592 23.6279C397.421 22.1468 401.329 18.7486 403.955 16.3174L409.553 21.1919V22.5756L417.124 16.3174C419.504 17.9788 426.539 22.3125 426.539 22.3125L433.784 16.3174C436.106 18.0957 441.392 21.3089 444.32 22.9703V23.2333C443.343 23.4867 443.268 24.6876 443.268 25.3405V43.187L446.164 45.2284L448.469 43.187L449.589 44.176ZM395.723 9.86436C393.77 12.5318 392.179 13.7498 389.007 13.7498C386.868 13.7498 385.711 13.1311 384.001 11.1164L381.631 13.2895L380.576 12.0372L388.808 4.8583C390.946 9.06779 393.516 9.65966 395.592 9.60119L395.723 9.86436Z" fill="#274D44"/>
<path d="M398.358 44.045C396.221 45.8233 392.009 49.4724 390.06 51.3555C388.229 49.755 385.125 47.4384 382.687 45.6259V45.4261C383.371 45.1557 383.739 44.3324 383.739 43.3872V24.4201L381.566 22.576L378.998 24.8147L377.944 23.7599C379.775 22.2788 383.746 18.749 386.375 16.3178L393.025 22.0474V22.3129C392.231 22.5468 391.97 23.0437 391.97 24.8147V43.1874L394.867 45.0974L397.237 42.9901L398.358 44.045ZM264.616 44.045C262.477 45.8233 258.2 49.4724 256.251 51.3555C254.419 49.755 251.315 47.4384 248.877 45.6259V45.4261C249.561 45.1557 249.929 44.3324 249.929 43.3872V12.6297L247.691 10.7199L245.254 12.8294L244.2 11.7746C246.032 10.2935 249.544 7.02671 252.168 4.59554L259.215 10.3251V10.5883C258.421 10.8246 258.095 11.3216 258.095 13.0926V43.1874L261.125 45.1631L263.561 42.9901L264.616 44.045ZM188.95 44.1764C186.999 45.7769 182.485 49.6357 180.655 51.3555C178.945 49.8719 175.476 47.1655 173.279 45.6259V45.3628C173.915 45.1533 174.4 44.5832 174.4 43.1874V26.7246C172.629 25.4797 169.771 23.6942 167.878 22.5102C167.493 22.788 165.971 23.8744 165.574 24.2228V43.9791L168.604 46.1521C168.604 46.1521 164.56 49.4067 162.612 51.2898C160.78 49.6893 158.731 48.23 156.29 46.4152V46.2837C156.975 46.0133 157.408 45.1875 157.408 44.2423V24.4201L155.104 22.5102L152.799 24.4201L151.812 23.3653C153.642 21.8842 157.418 18.749 160.044 16.3178L165.574 21.1923V22.576L173.147 16.3178C175.467 18.0961 180.753 21.3093 183.683 22.9707V23.2337C182.706 23.4871 182.565 24.688 182.565 25.3409V43.1874L185.462 45.1631L187.832 43.1216L188.95 44.1764ZM492.526 46.481V36.9316C491.364 36.3981 490.051 35.6577 488.903 35.0876L479.683 44.5712L480.014 44.6369C481.446 43.8793 482.021 42.9243 484.952 42.9243C487.943 42.9243 490.962 45.0291 492.394 46.5467L492.526 46.481ZM501.941 17.1753C501.941 20.3763 498.199 24.6174 493.249 24.6174C489.99 24.6174 488.058 23.0024 486.53 20.9293L486.401 20.995V28.9633L490.879 31.0705L492.92 29.0292C495.032 30.3276 499.41 32.6028 501.744 33.5724V33.7697C501.286 33.9573 500.757 34.4689 500.757 35.4165V41.0145C500.757 41.8184 501.317 42.3519 501.744 42.5297V42.7928C496.984 44.8098 490.141 48.4493 486.796 51.3555C485.086 49.755 482.784 48.2593 479.814 48.2593C477.032 48.2593 475.8 49.2508 475.8 50.1691C475.8 50.7416 476.984 50.6637 476.984 51.4871C476.984 51.8647 476.647 52.2763 476.126 52.2763C475.476 52.2763 474.284 51.3749 474.284 50.2349C474.284 48.1009 475.807 46.2471 479.288 42.727L485.412 36.537C482.893 35.2849 479.227 33.7112 477.181 32.8489V32.5857C477.775 32.4201 478.17 31.8184 478.17 31.1363V26.0644C478.17 25.5065 477.914 24.6564 477.181 24.4201V24.1545C482.309 22.3787 488.801 18.8002 492.526 16.2545C493.359 17.1534 495.573 19.0851 497.924 19.0851C499.904 19.0851 500.362 18.1108 500.362 17.4385C500.362 17.056 499.636 16.8464 499.636 16.2545C499.636 15.7454 499.902 15.5286 500.297 15.5286C500.879 15.5286 501.941 16.0961 501.941 17.1753Z" fill="#274D44"/>
<path d="M466.447 30.0835C464.737 27.7717 461.689 23.9837 459.797 21.2577L459.599 21.3234V34.2978L466.447 30.0835ZM474.086 27.1189L459.599 35.8764V41.8691C461.431 42.6414 465.219 44.3149 467.171 45.5572L470.267 42.4634C471.124 41.6035 471.044 40.0932 472.571 40.0932C473 40.0932 473.429 40.7388 473.429 41.2113C473.429 41.7156 473.02 41.9568 472.769 42.2004L463.351 51.3551C460.116 49.338 453.548 46.4026 450.313 45.0969V44.8337C450.837 44.6437 451.431 44.2953 451.431 42.9896V26.3271C451.431 24.9654 450.907 24.5268 450.313 24.4196V24.1541C455.197 22.6145 462.644 18.7486 466.184 16.3174C468.627 19.874 471.765 24.2736 474.086 27.1189ZM370.303 44.768V14.5415C369.938 14.5658 369.297 14.6048 368.922 14.6048C366.822 14.6048 363.137 13.8083 360.757 13.1578C353.675 14.4002 345.478 20.2224 345.478 31.1359C345.478 40.4952 352.325 46.4806 362.072 46.4806C365.368 46.4806 368.279 45.9373 370.303 44.768ZM378.735 6.50493C378.735 11.2796 375.468 13.6962 371.621 14.4075V44.0445C376.567 41.3771 377.285 38.6437 377.285 37.26C377.285 36.9604 376.627 36.5512 376.627 36.0104C376.627 35.5889 377.166 35.2186 377.548 35.2186C378.106 35.2186 378.338 35.7133 378.338 36.6024C378.338 43.5378 371.531 52.8703 357.003 52.8703C346.101 52.8703 336.852 44.5584 336.852 33.835C336.852 18.5439 350.019 13.2285 359.176 12.695C355.819 11.9836 350.472 10.8508 346.006 10.8508C340.818 10.8508 336.523 13.8496 336.523 16.5171C336.523 17.5231 337.38 17.7132 337.38 18.4245C337.38 18.8167 337.212 19.282 336.654 19.282C335.799 19.282 335.073 18.4147 335.073 17.7668C335.073 11.9568 339.361 3.67427 348.377 3.67427C357.517 3.67427 364.308 6.89954 371.424 6.89954C376.128 6.89954 377.468 5.28698 377.285 2.6195L378.338 2.94839C378.52 3.36496 378.735 4.72418 378.735 6.50493ZM308.075 46.4806V36.9312C306.915 36.3977 305.602 35.6572 304.452 35.0872L295.234 44.5707L295.563 44.6364C296.995 43.8788 297.573 42.9239 300.503 42.9239C303.495 42.9239 306.513 45.0286 307.943 46.5463L308.075 46.4806ZM317.492 17.1748C317.492 20.3758 313.751 24.6169 308.801 24.6169C305.541 24.6169 303.609 23.0019 302.082 20.9288L301.95 20.9945V28.9629L306.43 31.07L308.469 29.0287C310.584 30.3271 314.961 32.6024 317.295 33.5719V33.7692C316.837 33.9568 316.306 34.4684 316.306 35.4161V41.014C316.306 41.8179 316.866 42.3515 317.295 42.5293V42.7923C312.533 44.8094 305.69 48.4488 302.345 51.3551C300.637 49.7546 298.335 48.2588 295.366 48.2588C292.581 48.2588 291.349 49.2503 291.349 50.1687C291.349 50.7412 292.535 50.6633 292.535 51.4866C292.535 51.8642 292.199 52.2759 291.678 52.2759C291.027 52.2759 289.833 51.3745 289.833 50.2344C289.833 48.1004 291.356 46.2467 294.84 42.7266L300.964 36.5366C298.442 35.2844 294.776 33.7108 292.732 32.8484V32.5853C293.327 32.4196 293.719 31.818 293.719 31.1359V26.0639C293.719 25.5061 293.463 24.6559 292.732 24.4196V24.1541C297.86 22.3782 304.352 18.7997 308.075 16.254C308.91 17.1529 311.122 19.0847 313.475 19.0847C315.456 19.0847 315.911 18.1104 315.911 17.438C315.911 17.0555 315.188 16.846 315.188 16.254C315.188 15.7449 315.453 15.5282 315.846 15.5282C316.43 15.5282 317.492 16.0957 317.492 17.1748Z" fill="#274D44"/>
<path d="M282.197 30.0836C280.487 27.7718 277.437 23.9838 275.546 21.2579L275.347 21.3236V34.298L282.197 30.0836ZM289.834 27.119L275.347 35.8765V41.8693C277.178 42.6415 280.967 44.315 282.92 45.5574L286.016 42.4636C286.876 41.6036 286.796 40.0934 288.321 40.0934C288.747 40.0934 289.176 40.7389 289.176 41.2115C289.176 41.7158 288.769 41.9569 288.518 42.2005L279.101 51.3552C275.865 49.3382 269.298 46.4028 266.063 45.0971V44.8339C266.584 44.6439 267.181 44.2955 267.181 42.9898V26.3273C267.181 24.9655 266.657 24.527 266.063 24.4198V24.1542C270.947 22.6147 278.392 18.7487 281.934 16.3175C284.375 19.8742 287.515 24.2737 289.834 27.119ZM239.196 30.0836C237.485 27.7718 234.436 23.9838 232.545 21.2579L232.348 21.3236V34.298L239.196 30.0836ZM246.835 27.119L232.348 35.8765V41.8693C234.18 42.6415 237.965 44.315 239.919 45.5574L243.013 42.4636C243.873 41.6036 243.792 40.0934 245.32 40.0934C245.746 40.0934 246.175 40.7389 246.175 41.2115C246.175 41.7158 245.768 41.9569 245.517 42.2005L236.099 51.3552C232.864 49.3382 226.297 46.4028 223.062 45.0971V44.8339C223.585 44.6439 224.182 44.2955 224.182 42.9898V26.3273C224.182 24.9655 223.656 24.527 223.062 24.4198V24.1542C227.946 22.6147 235.39 18.7487 238.933 16.3175C241.373 19.8742 244.514 24.2737 246.835 27.119ZM208.64 45.6256V26.9874C206.26 25.6841 202.309 23.0555 199.685 20.8631L199.554 20.929V41.7401C201.934 42.8046 205.883 45.0434 207.654 46.3491L208.64 45.6256ZM220.099 48.7195C219.902 56.2469 216.012 61.4307 208.772 61.4307C203.108 61.4307 198.969 58.6 193.824 58.6C190.828 58.6 189.205 59.4941 188.358 60.5075L187.963 60.3102C188.268 54.8583 192.233 51.8157 197.315 51.8157C202.913 51.8157 206.994 55.3065 212.92 55.3065C216.706 55.3065 218.679 53.3746 219.045 51.4209L218.979 51.2895C218.185 51.7621 217.147 52.3419 215.622 52.3419C212.567 52.3419 209.257 50.2931 208.706 46.678C207.249 47.6646 204.017 50.1347 202.582 51.3552C199.006 49.1092 193.205 46.3102 190.399 45.0971V44.8339C190.984 44.6488 191.388 43.9448 191.388 43.2529V26.2614C191.388 25.2529 191.05 24.5465 190.333 24.4198V24.1542C195.522 22.3175 202.141 18.9119 205.744 16.1859C208.864 18.5854 214.584 21.9666 217.926 23.8254V24.1542C217.193 24.4514 216.806 24.9265 216.806 26.5246V44.8339C216.806 47.1847 217.03 48.7852 218.781 48.7852C219.059 48.7852 219.393 48.5538 219.637 48.259L220.099 48.7195ZM136.402 31.8595L130.146 13.158L123.232 31.8595H136.402ZM155.037 43.8474L146.74 51.3552C144.421 49.7547 142.426 48.4563 139.498 46.678V46.3491C140.16 46.1153 140.477 45.4672 140.484 44.7023C140.487 44.3661 140.402 44.0031 140.287 43.6499L137.917 36.4051H121.52L119.347 42.4636C122.738 42.4636 124.477 42.8412 126.129 43.516L127.776 40.6196L129.094 41.2772L123.43 51.4209C121.208 50.1931 118.696 49.2455 115.856 49.2455C112.509 49.2455 109.983 50.0933 108.745 51.2236C108.497 51.4502 108.139 51.3892 108.285 50.8947C109.627 46.3296 112.648 42.8486 117.832 42.5294L129.291 11.7084C128.104 8.61223 126.957 7.36255 124.087 7.36255C121.401 7.36255 118.755 8.57335 118.755 11.7743C118.755 13.2554 120.268 13.1288 120.268 14.2104C120.268 14.5904 119.932 15.0021 119.413 15.0021C118.436 15.0021 117.437 13.7378 117.437 11.2481C117.437 5.61597 122.163 2.29076 126.986 2.29076C131.381 2.29076 133.15 3.93755 134.492 5.71586C134.921 4.05691 136.548 2.95572 137.851 2.75109L138.246 3.40887C137.432 4.3906 136.994 5.26026 136.994 6.50508C136.994 7.15307 137.271 8.4905 137.456 9.00938L149.771 43.6499L151.878 44.8996L154.117 42.8583L155.037 43.8474ZM86.0266 46.4807V36.9313C84.867 36.3978 83.5516 35.6574 82.4042 35.0873L73.1862 44.5709L73.5151 44.6366C74.9475 43.879 75.5224 42.924 78.453 42.924C81.4444 42.924 84.4627 45.0288 85.8951 46.5464L86.0266 46.4807ZM95.442 17.175C95.442 20.376 91.7001 24.6171 86.7501 24.6171C83.4931 24.6171 81.5589 23.0021 80.0339 20.929L79.9024 20.9947V28.963L84.3798 31.0702L86.4213 29.0289C88.5333 30.3273 92.9109 32.6025 95.2447 33.5721V33.7694C94.7891 33.957 94.258 34.4686 94.258 35.4162V41.0142C94.258 41.8181 94.8184 42.3516 95.2447 42.5294V42.7925C90.4846 44.8095 83.6417 48.449 80.297 51.3552C78.5869 49.7547 76.2873 48.259 73.3178 48.259C70.5334 48.259 69.3007 49.2505 69.3007 50.1688C69.3007 50.7413 70.4847 50.6634 70.4847 51.4868C70.4847 51.8644 70.1484 52.276 69.6296 52.276C68.9767 52.276 67.7855 51.3746 67.7855 50.2346C67.7855 48.1006 69.308 46.2468 72.7891 42.7267L78.9134 36.5367C76.3945 35.2846 72.7282 33.7109 70.682 32.8486V32.5854C71.2764 32.4198 71.671 31.8181 71.671 31.136V26.0641C71.671 25.5062 71.4152 24.6561 70.682 24.4198V24.1542C75.8098 22.3784 82.3019 18.7999 86.0266 16.2542C86.8597 17.1531 89.0741 19.0848 91.4249 19.0848C93.4054 19.0848 93.8609 18.1105 93.8609 17.4382C93.8609 17.0557 93.1374 16.8461 93.1374 16.2542C93.1374 15.745 93.4054 15.5283 93.7952 15.5283C94.3799 15.5283 95.442 16.0958 95.442 17.175ZM57.2496 46.5464V26.9874C54.4408 25.5063 50.3117 22.5221 48.358 20.8631L48.2264 20.929V40.8826C50.9134 42.3053 54.9207 44.7754 57.1181 46.6122L57.2496 46.5464ZM66.5334 42.7925C62.4505 44.4124 54.5431 48.449 51.1253 51.3552C47.5224 48.8047 42.2849 45.443 38.9426 43.5818V43.3869C39.7977 43.0897 39.995 42.4832 39.995 41.4747V26.5246C39.995 25.1506 39.6759 24.6561 38.9426 24.4198V24.1542C44.5577 22.1396 49.8342 19.2749 54.3507 16.2542C57.4639 18.5051 62.9329 21.8181 66.5334 23.8912V24.1542C65.8829 24.41 65.4152 25.058 65.4152 26.0641V40.8826C65.4152 41.9496 65.8634 42.3516 66.5334 42.5294V42.7925ZM22.9402 40.751V13.0264C18.9354 12.6001 17.1742 10.0204 15.8295 8.4808L11.944 11.5111C11.9634 15.7279 13.1547 19.1458 14.6431 22.5099C16.0024 25.5842 17.542 29.5647 17.542 32.3199C17.542 36.8631 14.9476 39.7303 8.78195 45.3625L8.97926 45.5574C12.6431 42.8924 18.0194 40.8314 22.9402 40.751ZM38.0194 40.6853L32.0292 51.5525C28.8915 49.4283 23.8537 48.1274 19.5809 48.1274C11.1571 48.1274 5.38608 49.5817 2.39461 51.4209L2 51.0263C4.67235 48.7535 9.17901 45.1068 9.17901 36.7999C9.17901 33.2993 7.72717 29.3333 6.67479 26.7243C5.4592 23.7036 4.50184 22.1153 4.50184 17.8985C4.50184 10.5562 8.58703 6.41014 14.9719 3.27981L15.4348 3.87173C13.2301 5.65004 12.2046 7.94239 11.8782 10.2591L22.0852 1.96187C24.6991 5.52581 27.1619 6.89969 30.3824 6.89969C33.0231 6.89969 33.8051 5.76217 33.8051 4.8584C33.8051 4.20554 32.8842 4.11536 32.8842 3.47712C32.8842 2.87054 33.3105 2.68537 33.6735 2.68537C34.4847 2.68537 35.2545 3.70116 35.2545 4.46364C35.2545 9.46241 30.6138 13.158 26.0365 13.158C25.2424 13.158 24.6966 13.2432 24.1924 13.158V40.751C28.1607 40.751 31.9341 41.8376 34.9256 43.3212L36.7697 40.1591L38.0194 40.6853ZM367.605 17.175C367.605 17.5891 367.122 17.8985 366.815 17.8985C366.289 17.8985 365.843 16.912 364.379 16.912C362.223 16.912 360.426 18.7024 360.426 20.7974C360.426 26.3102 366.026 28.5391 366.026 34.8241C366.026 40.0958 360.715 43.1507 355.225 43.8474L354.17 43.1213C357.178 42.7413 358.65 41.7353 358.65 38.1835C358.65 33.3821 353.512 29.4745 353.512 23.8254C353.512 19.2578 357.938 15.7256 363.982 15.7256C365.159 15.7256 366.309 16.0763 366.944 16.3832C367.312 16.5611 367.605 16.8193 367.605 17.175Z" fill="#274D44"/>
</svg>
