<svg width="211" height="93" viewBox="0 0 211 93" fill="none" xmlns="http://www.w3.org/2000/svg">
<g clip-path="url(#clip0)">
<path fill-rule="evenodd" clip-rule="evenodd" d="M22.6526 9.64166C22.7286 8.12329 23.1087 6.529 23.5648 5.01064C24.401 2.42941 26.3014 0.835126 28.9619 0.303697C31.0904 -0.151813 33.2188 -0.151813 35.3473 0.455534C38.4639 1.36655 39.9082 3.72002 40.5164 6.68084C40.8204 8.19921 41.0485 9.79349 41.0485 11.3878C41.1245 18.4482 41.1245 25.5845 41.0485 32.6449C41.0485 34.5429 40.6684 36.5168 40.2123 38.3388C39.4521 41.3755 37.3997 43.2735 34.207 43.8049C32.3066 44.1086 30.4062 44.1086 28.5058 43.6531C25.2371 42.818 23.5648 40.4645 22.9566 37.4278C22.5766 35.378 22.4245 33.2523 22.3485 31.2025C22.3905 29.4841 22.4556 24.3415 22.5183 19.3894C22.5692 15.371 22.6185 11.4781 22.6526 9.64166ZM34.9672 22.0164V10.0972C34.9672 9.18615 34.7391 8.27513 34.4351 7.44002C34.055 6.30125 33.0668 5.76982 31.8505 5.76982C30.6343 5.76982 29.6461 6.37717 29.342 7.51594C29.1139 8.35104 28.8859 9.26206 28.8859 10.1731V33.8596C28.8859 34.7706 29.1139 35.6817 29.342 36.5168C29.7221 37.6555 30.6343 38.187 31.7745 38.2629C33.1428 38.3388 34.055 37.8074 34.4351 36.6686C34.7391 35.8335 34.8912 34.9225 34.8912 34.0115C34.9672 29.9878 34.9672 25.9641 34.9672 22.0164ZM18.7763 41.9822V22.0916C18.7763 15.2589 18.7763 8.50218 18.6243 1.51769C18.6243 0.303 18.3962 0.0752452 17.18 0.0752452H13.9873C12.619 0.0752452 12.391 0.303 12.391 1.66953V10.7797V16.9291C12.391 17.6124 12.1629 17.8401 11.4788 17.8401H7.52592C6.23365 17.8401 6.23365 17.8401 6.23365 16.5495V1.51769C6.23365 0.454837 5.92959 0.151164 4.86536 0.151164H1.82472C0.228381 0.151164 0.00033249 0.378919 0.00033249 1.9732C0.00033249 15.3348 0.00033249 28.6206 -0.0756836 41.9822V42.8932C0.00033249 43.5765 0.304397 43.8801 0.988541 43.8801H4.18122C6.23365 43.8801 6.23365 43.8042 6.23365 41.8303V24.9006C6.23365 23.8377 6.30967 23.7618 7.37389 23.7618H10.7946C12.543 23.7618 12.543 23.7618 12.543 25.5079V41.9063C12.543 42 12.5384 42.0984 12.5337 42.1979C12.5193 42.5016 12.5045 42.8164 12.619 43.045C12.771 43.3487 13.1511 43.8042 13.4552 43.8042C14.8995 43.8801 16.4198 43.8801 17.8641 43.8042C18.1682 43.8042 18.5483 43.3487 18.7003 43.045C18.8138 42.8183 18.8002 42.5491 18.786 42.2693C18.7812 42.1744 18.7763 42.0783 18.7763 41.9822ZM145.267 6.75685L146.939 6.37726C147.015 7.28828 147.7 7.81971 148.688 7.81971C149.372 7.81971 149.98 7.51603 149.98 6.83277C149.98 6.12012 149.176 5.87575 148.26 5.59728C148.201 5.5791 148.14 5.56077 148.08 5.54216C146.863 5.16256 145.647 4.78297 145.647 3.41644C145.647 1.97399 146.863 1.21481 148.536 1.21481C149.904 1.21481 151.424 1.74624 151.652 3.26461L150.056 3.6442C149.904 2.80909 149.372 2.4295 148.536 2.4295C147.852 2.4295 147.243 2.73318 147.243 3.34052C147.243 3.94787 148.004 4.17563 148.992 4.40338L149.148 4.45201C150.329 4.8174 151.652 5.22728 151.652 6.68093C151.652 8.27522 150.208 8.95848 148.612 8.95848C146.863 9.0344 145.495 8.1993 145.267 6.75685ZM156.061 5.16241C156.061 2.73302 157.581 1.29057 159.786 1.29057C161.99 1.29057 163.511 2.80894 163.511 5.16241C163.511 7.59179 161.99 9.11016 159.786 9.11016C157.505 9.03424 156.061 7.51588 156.061 5.16241ZM161.838 5.16241C161.838 3.4922 161.002 2.58118 159.71 2.58118C158.418 2.58118 157.657 3.4922 157.657 5.16241C157.657 6.83261 158.494 7.74363 159.71 7.74363C161.002 7.74363 161.838 6.83261 161.838 5.16241ZM175.521 8.95832V1.29057H173.849V7.59179L170.884 1.29057H168.376V8.95832H169.972V2.6571L172.937 8.95832H175.521ZM180.386 5.16241C180.386 2.73302 181.907 1.29057 184.111 1.29057C186.316 1.29057 187.836 2.80894 187.836 5.16241C187.836 7.59179 186.316 9.11016 184.111 9.11016C181.907 9.03424 180.386 7.51588 180.386 5.16241ZM186.163 5.16241C186.163 3.4922 185.327 2.58118 184.035 2.58118C182.743 2.58118 181.983 3.4922 181.983 5.16241C181.983 6.83261 182.819 7.74363 184.035 7.74363C185.327 7.74363 186.163 6.83261 186.163 5.16241ZM194.373 5.76983H194.981L197.262 8.9584H199.162L196.654 5.69391C197.718 5.46615 198.402 4.70697 198.402 3.56819C198.402 2.3535 197.642 1.36656 195.742 1.36656H192.777V8.9584H194.373V5.76983ZM195.514 4.55513H194.373V2.58126H195.514C196.502 2.58126 196.882 2.88493 196.882 3.56819C196.882 4.17554 196.502 4.55513 195.514 4.55513ZM207.98 7.28812H205.091L204.635 8.88241H202.887L205.472 1.29057H207.6L210.185 8.88241H208.512L207.98 7.28812ZM207.6 6.07343L206.536 2.50526L205.472 6.07343H207.6ZM116.457 16.095C114.328 16.095 112.732 17.5374 112.732 19.9668C112.732 22.3203 114.252 23.8386 116.457 23.8386C118.129 23.8386 119.421 23.0035 119.953 21.4852L118.433 20.9538C118.205 22.0166 117.369 22.548 116.457 22.548C115.316 22.548 114.404 21.637 114.404 19.9668C114.404 18.2966 115.24 17.3856 116.457 17.3856C117.369 17.3856 118.129 17.917 118.433 18.9799L119.953 18.4484C119.497 17.006 118.129 16.095 116.457 16.095ZM126.034 22.1683L125.578 23.7626H123.83L126.415 16.1707H128.543L131.128 23.7626H129.455L128.923 22.1683H126.034ZM128.543 20.8777L127.479 17.3095L126.415 20.8777H128.543ZM140.022 23.7626V22.472H137.361V16.1707H135.765V23.7626H140.022ZM146.255 16.1707H144.659V23.7626H146.255V16.1707ZM153.401 19.2834V17.4613H156.593V16.1707H151.728V23.7626H153.401V20.574H156.137V19.2834H153.401ZM160.85 19.9668C160.85 17.5374 162.371 16.095 164.575 16.095C166.779 16.095 168.3 17.6133 168.3 19.9668C168.3 22.3962 166.779 23.9146 164.575 23.9146C162.371 23.8386 160.85 22.3203 160.85 19.9668ZM166.627 19.9668C166.627 18.2966 165.791 17.3856 164.499 17.3856C163.207 17.3856 162.447 18.2966 162.447 19.9668C162.447 21.637 163.283 22.548 164.499 22.548C165.791 22.548 166.627 21.637 166.627 19.9668ZM174.837 20.574H175.445L177.725 23.7626H179.626L177.117 20.4981C178.181 20.2703 178.865 19.5111 178.865 18.3724C178.865 17.1577 178.105 16.1707 176.205 16.1707H173.24V23.7626H174.837V20.574ZM175.901 19.3593H174.761V17.3854H175.901C176.889 17.3854 177.269 17.6891 177.269 18.3724C177.269 18.9797 176.889 19.3593 175.901 19.3593ZM191.256 16.1707V23.7626H188.748L185.707 17.4613V23.7626H184.111V16.1707H186.695L189.66 22.396V16.1707H191.256ZM196.654 16.1707H198.25V23.7626H196.654V16.1707ZM207.98 22.1683H205.091L204.635 23.7626H202.887L205.472 16.1707H207.6L210.185 23.7626H208.512L207.98 22.1683ZM207.6 20.8777L206.536 17.3095L205.472 20.8777H207.6ZM53.5155 75.387C53.5155 75.4629 53.3634 75.5389 53.2874 75.5389C53.2114 75.5389 53.0594 75.4629 53.0594 75.387C52.6033 73.565 48.9545 59.3683 47.2061 52.6115C47.0782 52.0899 46.9832 51.6518 46.9034 51.2842L46.9034 51.2839C46.6998 50.3455 46.5958 49.866 46.2984 49.6258C45.9875 49.3748 45.4654 49.3853 44.3975 49.4069H44.3975C44.0333 49.4143 43.6057 49.4229 43.1013 49.4229H41.961C41.2009 49.4229 40.5927 50.0303 40.5927 50.7895V91.6335C40.5927 92.2409 41.1249 92.7723 41.733 92.7723C42.2179 92.7723 42.8127 92.7906 43.4185 92.8092H43.4187H43.4189H43.4191H43.4194H43.4197L43.42 92.8092C44.0482 92.8286 44.6882 92.8482 45.2297 92.8482C46.2939 92.8482 47.0541 92.0891 47.0541 91.1021C47.0541 87.9136 47.0541 81.7642 47.1301 79.2589C47.1301 79.0311 47.4342 78.9552 47.5102 79.1829C48.0657 81.0938 49.022 85.0564 49.7283 87.9829L49.7295 87.9878C49.8926 88.6638 50.0424 89.2844 50.1708 89.8115C50.2102 89.9761 50.2471 90.1317 50.2819 90.2786L50.282 90.2788C50.6143 91.6802 50.7611 92.2989 51.1508 92.5768C51.4589 92.7964 51.9187 92.8031 52.7421 92.815H52.7422H52.7423H52.7423H52.7424H52.7425H52.7425H52.7426C53.0845 92.82 53.4891 92.8258 53.9716 92.8482C55.4919 92.9242 56.024 92.3168 56.3281 90.9503C56.9362 87.9895 58.3805 81.8401 58.9886 79.3348C58.9886 79.107 59.2927 79.1829 59.2927 79.3348C59.3127 79.9348 59.3433 80.7297 59.3775 81.6182L59.3775 81.6192C59.4731 84.1034 59.5968 87.3191 59.5968 89.0523C59.5968 89.2135 59.5965 89.3679 59.5963 89.5156C59.5938 91.3102 59.5926 92.1329 60.0013 92.503C60.3473 92.8163 60.987 92.8052 62.1683 92.7848H62.1687H62.1691H62.1695H62.17H62.1706H62.1712C62.5086 92.7789 62.8901 92.7723 63.3215 92.7723C64.5383 92.7723 65.1465 92.7723 65.4504 92.4683C65.7541 92.1645 65.7541 91.5571 65.7541 90.3429V53.4466C65.7541 52.9566 65.7599 52.5249 65.765 52.1448V52.1444V52.144V52.1436V52.1433V52.143V52.1428V52.1426V52.1423V52.1421V52.1419V52.1418V52.1416L65.765 52.1405C65.7842 50.7086 65.7936 50.0084 65.4483 49.6678C65.1178 49.3417 64.4623 49.3451 63.1796 49.3518H63.1795H63.1794H63.1794H63.1793H63.1792H63.1792H63.1791H63.179H63.179H63.1789H63.1788H63.1787H63.1786C62.7445 49.3541 62.2386 49.3567 61.6492 49.347C60.3569 49.347 59.9008 49.8785 59.5968 51.0172C59.1027 53.067 58.5895 55.1168 58.0764 57.1667C57.5633 59.2164 57.0502 61.2662 56.5561 63.316C55.8898 66.0334 54.7367 70.5736 54.045 73.2971L54.0448 73.2979C53.7897 74.3025 53.5974 75.0597 53.5155 75.387ZM75.8641 92.7723H71.4552C70.3909 92.7723 69.8588 92.3168 69.9349 91.254V89.2801V51.4727C69.9349 49.4229 70.0109 49.347 72.0633 49.347H79.4369C84.4539 49.4229 87.5706 52.0801 88.2547 57.0148C88.7868 61.1903 88.7868 65.9731 85.6702 69.1617C85.3661 69.4654 85.2901 69.845 85.2901 70.2246C85.3661 70.5282 85.4421 70.756 85.6702 70.9838C89.1669 73.8687 89.0909 81.916 87.5706 87.3821C86.5824 90.8744 83.9978 92.5446 80.197 92.6964C79.1138 92.8103 78.0306 92.7961 76.9473 92.7818C76.5863 92.7771 76.2252 92.7723 75.8641 92.7723ZM76.1682 79.9421V85.7878C76.1682 86.1674 76.2442 86.7748 76.5482 87.0025C77.9926 88.1413 81.6413 87.0785 81.9454 83.738C82.004 83.0215 82.0625 82.3782 82.1162 81.7886C82.3412 79.3172 82.4803 77.7894 82.1734 75.7666C81.9454 74.1723 80.8052 72.8058 79.3608 72.8058H77.3844C76.4722 72.7299 76.1682 73.1854 76.1682 74.0964V79.9421ZM76.1682 61.1144V66.0491C76.1682 66.4286 76.3962 67.036 76.7003 67.1878C78.6767 68.2507 81.7173 66.8842 82.0214 64.6825C82.3255 62.9364 82.3255 61.1144 82.2495 59.2923C82.1734 55.5723 81.0332 54.7372 77.3844 54.8891C76.3962 54.965 76.0921 55.3446 76.0921 56.2556C76.1682 57.9258 76.1682 59.5201 76.1682 61.1144ZM200.53 75.0833C200.606 75.0074 200.682 74.9314 200.834 74.9314C200.892 74.9314 200.939 74.9536 200.98 74.9725C201.044 75.0031 201.091 75.0253 201.138 74.9314C201.366 76.3739 202.963 84.4212 203.799 88.5967C203.933 89.2904 204.027 89.8636 204.103 90.3372L204.104 90.3382C204.285 91.4554 204.377 92.0175 204.707 92.2959C205.041 92.5778 205.621 92.5687 206.788 92.5505C207.294 92.5425 207.91 92.5329 208.664 92.5445C210.412 92.5445 210.564 92.2408 210.26 90.5706C209.462 86.6988 208.683 82.808 207.904 78.9173C207.125 75.0264 206.346 71.1356 205.547 67.2637C205.243 65.6694 205.319 64.227 205.851 62.7086C207.22 58.7608 208.512 54.8131 209.804 50.8653C210.108 49.9543 209.576 49.1951 208.588 49.1951C208.284 49.1951 207.98 49.2036 207.676 49.212C207.068 49.2289 206.46 49.2457 205.851 49.1951C204.483 49.0433 203.799 49.5747 203.343 50.9412C202.221 54.676 200.946 58.4109 199.685 62.1038C199.408 62.9149 199.132 63.724 198.858 64.5306C198.782 64.9102 198.554 65.4416 198.402 65.7453C198.326 65.8972 198.25 65.8972 198.098 65.8972C198.022 65.8972 197.946 65.7453 197.946 65.6694V53.3706C197.946 52.9455 197.95 52.5647 197.953 52.2237C197.969 50.7392 197.976 50.0074 197.614 49.6519C197.263 49.3063 196.562 49.3162 195.179 49.3358C194.809 49.341 194.391 49.347 193.917 49.347C191.636 49.347 191.636 49.4229 191.636 51.7004V90.4188V91.4816C191.636 92.4686 192.169 92.6963 193.537 92.6963H195.893C197.414 92.6963 197.946 92.4686 197.946 91.3298C197.946 90.3869 197.911 88.8896 197.875 87.3261L197.875 87.3249V87.3241V87.3236V87.3233V87.3232V87.323C197.835 85.6146 197.794 83.8276 197.794 82.5992C197.794 80.9646 199.358 77.612 200.154 75.9042C200.32 75.5496 200.452 75.266 200.53 75.0833ZM111.363 71.0597V51.3209C111.363 49.4989 111.515 49.347 113.34 49.347C114.274 49.3687 115.208 49.378 116.142 49.3873H116.142C118.476 49.4106 120.811 49.4338 123.146 49.6507C126.11 49.8785 128.163 51.7005 128.923 54.5095C130.595 60.2034 130.063 71.2115 127.631 73.7927C126.415 75.0833 126.795 76.7535 127.099 77.9682C127.354 79.2454 127.598 80.445 127.835 81.6104L127.835 81.6111L127.836 81.6124C128.443 84.603 129.006 87.3694 129.607 90.6466C129.987 92.6205 129.759 92.8483 127.783 92.8483C127.018 92.8357 126.406 92.8501 125.913 92.8616C124.917 92.8849 124.407 92.8969 124.101 92.6527C123.779 92.3962 123.683 91.8572 123.485 90.7518C123.4 90.2736 123.296 89.6895 123.146 88.9764C122.386 85.3323 121.626 81.6123 121.017 77.8923C120.782 76.5396 120.044 76.5993 119.3 76.6596H119.3H119.3H119.3H119.3H119.3H119.299H119.299H119.299H119.299H119.299H119.299C119.083 76.6772 118.866 76.6947 118.661 76.6776C117.521 76.6017 117.521 77.3609 117.521 78.196V90.8744C117.521 92.6964 117.369 92.8483 115.544 92.8483C114.843 92.8373 114.257 92.8453 113.767 92.852C112.556 92.8685 111.935 92.877 111.617 92.5707C111.284 92.2486 111.287 91.5781 111.293 90.2023V90.2022C111.294 89.7482 111.297 89.2173 111.287 88.5968C111.363 82.7511 111.363 76.9054 111.363 71.0597ZM117.521 63.0123C117.521 64.1511 117.54 64.9862 117.559 65.8213L117.559 65.822C117.578 66.6569 117.597 67.4918 117.597 68.6303C117.597 70.3764 117.901 71.2115 120.181 71.2115C122.918 71.2115 123.678 69.7691 123.754 66.8842C123.83 64.3789 123.83 61.8736 123.754 59.3682C123.678 55.7242 122.614 54.8131 118.889 54.965C117.825 55.0409 117.521 55.4205 117.521 56.4074C117.571 57.8246 117.554 59.3092 117.538 60.7938C117.529 61.5361 117.521 62.2785 117.521 63.0123ZM37.037 71.5263C37.0286 69.9743 37.0201 68.425 37.0201 66.8841C37.0201 62.329 37.0201 57.8498 36.8681 53.2188C36.8681 52.7458 36.8743 52.3298 36.8797 51.9639L36.8797 51.9635C36.8993 50.6358 36.9091 49.9688 36.5805 49.6385C36.2487 49.3051 35.5718 49.3151 34.2114 49.3351H34.2113C33.8342 49.3406 33.4046 49.347 32.9153 49.347C30.7868 49.347 30.7108 49.4229 30.7108 51.5486V82.1437C30.7108 82.9788 30.5588 83.8898 30.4067 84.8008C30.1027 86.1674 29.3425 87.0784 27.7462 87.1543C26.2259 87.2302 25.2377 86.471 24.8576 84.8768C24.6295 83.9657 24.5535 82.9788 24.5535 82.0678V53.4466C24.5535 52.9073 24.5615 52.4389 24.5684 52.0319C24.5915 50.68 24.6029 50.0066 24.2719 49.6729C23.9434 49.3417 23.2777 49.345 21.9511 49.3517C21.5041 49.354 20.9821 49.3566 20.3726 49.347C18.5482 49.347 18.3962 49.4988 18.3962 51.3208V51.3216C18.3962 61.2666 18.3962 71.2117 18.4722 81.1568C18.4722 83.2825 18.6243 92.6963 27.2901 92.6963C37.0201 92.6963 37.0201 82.751 37.0201 80.8531C37.0709 77.7631 37.0539 74.6393 37.037 71.5268V71.5263ZM163.63 92.7687C162.864 92.7768 162.423 92.7815 162.131 92.5749C161.734 92.2937 161.615 91.6212 161.332 90.0337L161.332 90.0334L161.332 90.0331L161.332 90.0328L161.332 90.0324L161.332 90.0321L161.306 89.8876C161.079 88.6038 160.965 87.9585 160.581 87.6342C160.192 87.3064 159.527 87.3064 158.19 87.3064H154.389C153.172 87.3064 153.02 87.686 152.64 89.0525C152.526 89.4695 152.337 90.0756 152.147 90.6821L152.147 90.6831L152.146 90.6848L152.146 90.6864L152.145 90.6874C151.956 91.2939 151.766 91.9001 151.652 92.317C151.576 92.6207 151.272 92.8484 150.892 92.8484C150.556 92.8484 149.984 92.8336 149.344 92.8171C148.535 92.7962 147.618 92.7725 146.939 92.7725C146.407 92.7725 146.103 92.317 146.179 91.7856C146.711 88.6729 148.535 78.7276 149.448 73.8688C150.17 70.1108 150.892 66.3338 151.614 62.5567C152.336 58.7799 153.058 55.003 153.781 51.2452C154.009 49.8786 154.541 49.3472 155.985 49.4231C156.68 49.4467 157.247 49.4465 157.713 49.4463C158.749 49.446 159.283 49.4459 159.605 49.7072C159.946 49.985 160.048 50.5583 160.257 51.7411C160.333 52.1727 160.424 52.6856 160.546 53.295C162.979 65.8215 165.335 78.348 167.692 90.8746C168.072 92.6966 167.92 92.8484 166.019 92.8484C165.639 92.7725 165.259 92.7725 164.803 92.7725C164.344 92.761 163.957 92.7652 163.63 92.7687H163.63ZM159.862 80.7015C158.95 75.3872 158.113 70.3007 157.277 65.1382C157.277 65.0623 157.201 65.0623 157.201 65.0623H156.897C156.821 65.0623 156.821 65.1382 156.821 65.1382C156.464 67.3109 156.093 69.4836 155.72 71.668C155.22 74.5978 154.716 77.5488 154.237 80.5497C154.161 80.8533 154.465 81.2329 154.769 81.2329H159.482C159.71 81.3088 159.938 81.0052 159.862 80.7015ZM175.597 82.4476V71.1357C175.597 67.3398 175.597 63.5439 175.521 59.6721C175.521 58.6851 175.673 57.6982 175.977 56.7112C176.358 55.4206 177.346 54.8892 178.638 54.8892C180.234 54.8892 181.147 55.7243 181.375 57.1667C181.603 58.9129 181.679 60.7349 181.679 62.5569C181.755 63.6957 182.211 64.2271 183.351 64.1512H186.544C187.532 64.1512 188.064 63.6957 187.988 62.7088C187.911 61.9149 187.851 61.1123 187.792 60.3069C187.674 58.7249 187.556 57.132 187.304 55.5725C186.924 53.3708 185.86 51.3969 183.731 50.2582C177.726 46.9178 170.276 50.0304 169.82 56.7112C169.212 66.201 169.364 75.8427 169.82 85.4084C170.048 90.9504 173.849 93.3798 179.474 92.9243C179.664 92.8863 179.873 92.8673 180.082 92.8484C180.291 92.8294 180.5 92.8104 180.69 92.7725C183.655 92.3929 186.012 90.9504 186.772 88.0655C187.532 85.1047 187.912 82.5235 187.912 79.4867C187.912 78.6516 187.532 77.8925 186.696 77.8925H183.655C182.211 77.8925 181.679 78.348 181.679 79.7904C181.679 81.6125 181.603 83.4345 181.299 85.1806C181.071 86.5471 180.006 87.2304 178.638 87.2304C177.27 87.2304 176.358 86.5471 175.977 85.2565C175.749 84.3455 175.597 83.3586 175.597 82.4476ZM92.0558 70.9838V51.3968C92.0558 49.4989 92.2078 49.347 94.1082 49.347H105.891C107.183 49.347 107.715 49.8785 107.639 51.0932C107.628 51.6037 107.625 52.0498 107.622 52.4398V52.44V52.4402V52.4404V52.4406V52.4409V52.4411V52.4413C107.608 54.66 107.605 55.0636 106.119 55.1927H99.3533C98.5171 55.1927 98.2131 55.5723 98.2131 56.4074V65.7454C98.2131 66.8082 98.7452 67.036 99.6574 67.036H106.043C107.183 67.036 107.715 67.4915 107.639 68.6303C107.629 69.2274 107.632 69.74 107.635 70.1798V70.1799V70.18V70.1801V70.1802V70.1802V70.1803C107.642 71.4726 107.645 72.1375 107.315 72.4762C106.965 72.835 106.239 72.8278 104.746 72.8129C104.408 72.8096 104.031 72.8058 103.61 72.8058H99.5053C98.6692 72.8058 98.2131 73.0336 98.2131 74.0205V85.7878C98.2131 86.7748 98.7452 86.9266 99.5053 86.9266H105.891C107.107 86.9266 107.639 87.3821 107.639 88.5968C107.632 89.0482 107.63 89.451 107.627 89.8106C107.618 91.3997 107.613 92.143 107.24 92.4869C106.913 92.7891 106.301 92.7829 105.151 92.7714H105.151C104.718 92.7671 104.209 92.762 103.61 92.7723C102.549 92.7723 101.479 92.7639 100.406 92.7555H100.406H100.406H100.406H100.405H100.405H100.405H100.405C98.2514 92.7386 96.0868 92.7216 93.9562 92.7723C92.5119 92.8482 91.9797 92.2409 92.0558 90.8744V70.9838ZM0 51.3969V70.9838C0 73.1854 0.00844623 75.3955 0.0168925 77.6056C0.0337849 82.0257 0.0506774 86.4458 0 90.7985C0 92.241 0.532112 92.6965 1.97642 92.6965C3.53454 92.6585 5.09266 92.6775 6.65078 92.6965H6.65141H6.65203C8.21015 92.7154 9.76828 92.7344 11.3264 92.6965C12.0877 92.6846 12.715 92.6987 13.2319 92.7104H13.232H13.2321H13.2322H13.2323H13.2323C14.3587 92.7358 14.9605 92.7494 15.282 92.4559C15.6509 92.1193 15.6509 91.3785 15.6509 89.788C15.6509 89.3364 15.6509 88.8162 15.6593 88.2173C15.6593 86.8507 15.1272 86.3952 13.8349 86.4712C12.6187 86.5218 11.4024 86.5049 10.1862 86.488C9.57803 86.4796 8.9699 86.4712 8.36177 86.4712C6.23332 86.4712 6.23332 86.4712 6.23332 84.4214V53.3707C6.22552 52.8956 6.22412 52.4757 6.22289 52.1045C6.21814 50.6786 6.21579 49.9733 5.86211 49.6307C5.51594 49.2954 4.83321 49.3075 3.48224 49.3314H3.48212H3.48198H3.48182H3.48165H3.48145C3.07015 49.3387 2.59693 49.3471 2.05243 49.3471C0.0760162 49.3471 0 49.4989 0 51.3969ZM143.671 84.1936C143.519 88.5968 141.39 91.3299 137.893 92.2409C137.017 92.4596 136.378 92.5208 135.605 92.5947C135.306 92.6234 134.986 92.6539 134.625 92.6964C133.636 92.7723 132.496 92.3927 132.572 91.3299V89.0523C132.507 87.4294 132.553 87.4163 134.279 86.9244L134.279 86.9243L134.281 86.9238C134.573 86.8406 134.913 86.7437 135.309 86.6229C136.525 86.2433 137.361 85.4082 137.513 84.1936C137.741 82.827 137.817 81.3846 137.817 80.018V51.5487C137.817 49.4229 137.893 49.347 140.022 49.347C140.58 49.3568 141.061 49.354 141.476 49.3516C142.684 49.3445 143.329 49.3407 143.672 49.6606C144.065 50.0273 144.061 50.8193 144.053 52.5189C144.052 52.7807 144.051 53.0641 144.051 53.3707C144.026 54.8083 144.002 57.896 143.972 61.6198C143.91 69.4983 143.825 80.224 143.671 84.1936ZM64.3098 1.97442V22.0169V22.0183C64.3098 26.6488 64.3098 31.3553 64.2338 35.834V42.363C64.2338 43.3499 64.4619 43.6536 65.3741 43.6536H78.7529C79.6651 43.6536 79.9692 43.3499 79.9692 42.4389V39.3263C79.9692 38.1116 79.6651 37.8079 78.3728 37.8079H71.6834C70.6192 37.8079 70.5432 37.732 70.5432 36.745V24.7499C70.5432 23.9907 70.7712 23.6871 71.6074 23.6871H78.6769C79.6651 23.6871 79.9692 23.3834 79.9692 22.3965V19.2838C79.9692 18.145 79.6651 17.8414 78.5248 17.8414H71.7594C70.6192 17.8414 70.5432 17.7654 70.5432 16.6267V7.21279C70.5432 6.14993 70.6952 5.99809 71.7594 5.99809H78.7529C79.7411 5.99809 80.0452 5.77034 80.0452 4.7834V1.74666C80.0452 0.456051 79.7411 0.228296 78.4488 0.228296H66.0582C64.5379 0.228296 64.3098 0.456051 64.3098 1.97442ZM49.0301 24.6739V7.51639C49.0301 6.79547 49.0301 6.43486 48.8498 6.25447C48.6693 6.07394 48.3082 6.07394 47.5858 6.07394H43.937C43.1768 6.07394 42.7968 5.77026 42.7968 4.93516V1.51883C42.7968 0.455977 43.0248 0.152304 44.165 0.152304H60.0524C61.2687 0.152304 61.5727 0.455977 61.5727 1.67067V4.78332C61.5727 5.77026 61.2687 6.07394 60.3565 6.07394H56.4797C55.4914 6.07394 55.3394 6.22577 55.3394 7.21271V27.1033V42.287C55.3394 43.7294 55.1874 43.8813 53.6671 43.8813H50.1703C49.4102 43.8813 49.1061 43.5017 49.0301 42.8184V41.8315V24.6739ZM83.7699 1.89834V22.0167V42.6665C83.7699 43.7294 83.998 44.033 84.9862 44.033H98.213C99.2012 44.033 99.5052 43.7294 99.5052 42.7424V39.0983C99.5052 38.1114 99.2012 37.8077 98.137 37.8077H91.9036C90.9911 37.8077 90.535 37.8077 90.307 37.5797C90.0793 37.3518 90.0793 36.8963 90.0793 35.9857V2.58161V1.59467C90.0032 0.531812 89.7752 0.304057 88.787 0.304057H85.4423C83.998 0.304057 83.7699 0.455894 83.7699 1.89834Z" fill="#274D44"/>
</g>
<defs>
<clipPath id="clip0">
<rect width="210.413" height="93" fill="white"/>
</clipPath>
</defs>
</svg>
