<svg width="46" height="46" viewBox="0 0 46 46" fill="none" xmlns="http://www.w3.org/2000/svg">
<path fill-rule="evenodd" clip-rule="evenodd" d="M2.92925 0.000488281C1.31147 0.000488281 0 1.31196 0 2.92974V42.9628C0 44.5805 1.31147 45.892 2.92925 45.892H42.9623C44.58 45.892 45.8915 44.5805 45.8915 42.9627V2.92973C45.8915 1.31196 44.58 0.000488281 42.9623 0.000488281H2.92925ZM41.7227 14.9489H33.5347C31.0988 12.5827 27.3348 11.1815 23.3544 11.1815C19.5362 11.1815 15.6851 12.6162 13.1783 14.9489H5.17465L7.35563 18.4194C5.95305 20.0962 5.10716 22.2549 5.10716 24.607C5.10716 29.9326 9.44006 34.2651 14.7652 34.2651C17.5183 34.2651 20.0057 33.1074 21.7665 31.2532L23.3544 34.9174L24.9418 31.2532C26.7028 33.1074 29.1902 34.2651 31.9433 34.2651C37.2687 34.2651 41.6016 29.9326 41.6016 24.607C41.6016 22.3152 40.7984 20.2077 39.4597 18.5497L41.7227 14.9489ZM14.7652 32.127C10.6187 32.127 7.24568 28.7535 7.24568 24.607C7.24568 20.4605 10.6187 17.0875 14.7652 17.0875C18.9117 17.0875 22.285 20.4605 22.285 24.607C22.285 28.7535 18.9117 32.127 14.7652 32.127ZM39.4631 24.607C39.4631 28.7535 36.0898 32.127 31.9433 32.127C27.797 32.127 24.4233 28.7538 24.4233 24.607C24.4233 20.4609 27.797 17.0875 31.9433 17.0875C36.0898 17.0875 39.4631 20.4609 39.4631 24.607ZM9.68049 24.6069C9.68049 21.8024 11.962 19.521 14.7663 19.521C17.5708 19.521 19.8523 21.8024 19.8523 24.6069C19.8523 27.4114 17.5708 29.6931 14.7663 29.6931C11.962 29.6931 9.68049 27.4114 9.68049 24.6069ZM13.6453 24.6069C13.6453 25.225 14.1481 25.7278 14.7663 25.7278C15.3845 25.7278 15.8873 25.225 15.8873 24.6069C15.8873 23.9889 15.3845 23.4859 14.7663 23.4859C14.1481 23.4859 13.6453 23.9889 13.6453 24.6069ZM26.8573 24.6069C26.8573 21.8024 29.1391 19.521 31.9436 19.521C34.7481 19.521 37.0297 21.8024 37.0297 24.6069C37.0297 27.4114 34.7479 29.6931 31.9436 29.6931C29.1391 29.6931 26.8573 27.4114 26.8573 24.6069ZM30.8731 24.6069C30.8731 25.225 31.376 25.7278 31.9943 25.7278C32.6125 25.7278 33.1153 25.225 33.1153 24.6069C33.1153 23.9889 32.6125 23.4859 31.9943 23.4859C31.376 23.4859 30.8731 23.9889 30.8731 24.6069Z" fill="#274D44"/>
</svg>
