<svg width="47" height="46" viewBox="0 0 47 46" fill="none" xmlns="http://www.w3.org/2000/svg">
<path fill-rule="evenodd" clip-rule="evenodd" d="M3.33501 0.000488281C1.71723 0.000488281 0.405762 1.31196 0.405762 2.92974V42.9628C0.405762 44.5805 1.71723 45.892 3.33501 45.892H43.368C44.9858 45.892 46.2973 44.5805 46.2973 42.9627V2.92973C46.2973 1.31196 44.9858 0.000488281 43.368 0.000488281H3.33501ZM34.9105 15.2426C36.161 15.0837 37.3604 14.7564 38.486 14.2627C37.6423 15.5188 36.6075 16.6104 35.3759 17.4844C35.3891 17.7474 35.3986 18.0122 35.3986 18.2866C35.3986 26.4856 29.1556 35.9447 17.7367 35.9447C14.2236 35.9447 10.9659 34.9325 8.21715 33.1599C8.70524 33.2223 9.19332 33.245 9.70222 33.245C12.6042 33.245 15.2849 32.25 17.3962 30.5984C14.6833 30.5398 12.4018 28.7331 11.5978 26.2756C11.9743 26.3589 12.3753 26.3816 12.7726 26.3816C13.3439 26.3816 13.8945 26.3154 14.3996 26.1773C11.5789 25.6003 9.42791 23.0955 9.42791 20.08V20.0119C10.2565 20.4678 11.2346 20.7572 12.2316 20.7762C10.5819 19.6732 9.4752 17.7682 9.4752 15.6191C9.4752 14.4746 9.78924 13.4114 10.3246 12.4825C13.3912 16.2491 17.9562 18.7217 23.1151 18.9733C23.013 18.523 22.9713 18.0501 22.9713 17.5582C22.9713 14.1397 25.7371 11.3512 29.1727 11.3512C30.9434 11.3512 32.5666 12.1022 33.7054 13.3149C35.1167 13.033 36.441 12.5279 37.6404 11.8128C37.1788 13.2676 36.1969 14.4746 34.9105 15.2426Z" fill="#FDF5E6"/>
</svg>
